<svg width="200" height="40" viewBox="0 0 200 40" fill="none" xmlns="http://www.w3.org/2000/svg">
<rect x="0.5" y="0.5" width="199" height="39" rx="19.5" stroke="white"/>
<path d="M42.992 18.435C42.81 17.8717 42.6366 17.447 42.472 17.161C42.316 16.875 42.095 16.6583 41.809 16.511C41.523 16.3637 41.12 16.29 40.6 16.29H38.91V20.151H42.16V20.541H38.91V24.337C38.91 24.4323 38.9273 24.4973 38.962 24.532C39.0053 24.5667 39.092 24.597 39.222 24.623L39.781 24.74V25H35.465V24.74L35.946 24.636C36.076 24.61 36.1583 24.5797 36.193 24.545C36.2363 24.5103 36.258 24.4453 36.258 24.35V16.55C36.258 16.4547 36.2363 16.3897 36.193 16.355C36.1583 16.3203 36.076 16.29 35.946 16.264L35.465 16.16V15.9H43.317V18.435H42.992ZM49.3207 25C49.0781 25 48.9047 24.9523 48.8007 24.857C48.7054 24.753 48.6577 24.584 48.6577 24.35V24.285C48.0771 24.8483 47.2494 25.13 46.1747 25.13C45.6114 25.13 45.1694 25.0043 44.8487 24.753C44.5367 24.493 44.3807 24.0943 44.3807 23.557C44.3807 23.0197 44.5367 22.5993 44.8487 22.296C45.1694 21.9927 45.6331 21.776 46.2397 21.646C46.8464 21.516 47.6524 21.438 48.6577 21.412V20.463C48.6577 19.9777 48.5624 19.631 48.3717 19.423C48.1811 19.2063 47.8474 19.098 47.3707 19.098C46.9721 19.098 46.5994 19.1543 46.2527 19.267C45.9147 19.371 45.5681 19.5313 45.2127 19.748L45.0437 19.501C45.4597 19.2063 45.9581 18.9723 46.5387 18.799C47.1281 18.617 47.7867 18.526 48.5147 18.526C49.4941 18.526 50.1917 18.721 50.6077 19.111C51.0237 19.4923 51.2317 20.047 51.2317 20.775V24.376C51.2317 24.4713 51.2491 24.5363 51.2837 24.571C51.3271 24.6057 51.4137 24.636 51.5437 24.662L51.9987 24.766V25H49.3207ZM47.6307 24.311C48.0034 24.311 48.3457 24.1637 48.6577 23.869V21.763C48.1724 21.7977 47.8041 21.8757 47.5527 21.997C47.3014 22.1097 47.1281 22.2743 47.0327 22.491C46.9461 22.7077 46.9027 23.0023 46.9027 23.375C46.9027 23.7043 46.9591 23.9427 47.0717 24.09C47.1931 24.2373 47.3794 24.311 47.6307 24.311ZM60.9499 24.376C60.9499 24.4713 60.9673 24.5363 61.0019 24.571C61.0453 24.6057 61.1319 24.636 61.2619 24.662L61.7169 24.766V25H59.0129C58.7789 25 58.6099 24.9393 58.5059 24.818C58.4019 24.6967 58.3499 24.5147 58.3499 24.272V20.32C58.3499 19.93 58.2849 19.6527 58.1549 19.488C58.0336 19.3233 57.8256 19.241 57.5309 19.241C57.0109 19.241 56.4779 19.4577 55.9319 19.891V24.376C55.9319 24.4713 55.9493 24.5407 55.9839 24.584C56.0273 24.6187 56.1096 24.649 56.2309 24.675L56.6729 24.766V25H52.5649V24.766L53.0199 24.662C53.1499 24.636 53.2323 24.6057 53.2669 24.571C53.3103 24.5363 53.3319 24.4713 53.3319 24.376V19.462C53.3319 19.3667 53.3103 19.3017 53.2669 19.267C53.2323 19.2323 53.1499 19.202 53.0199 19.176L52.5649 19.072V18.838L55.6849 18.448H55.9059V19.501C56.2353 19.2323 56.6383 19.0027 57.1149 18.812C57.5916 18.6213 58.1203 18.526 58.7009 18.526C59.5069 18.526 60.0833 18.695 60.4299 19.033C60.7766 19.371 60.9499 19.878 60.9499 20.554V24.376ZM62.2889 19.02V18.682C62.5576 18.682 62.7569 18.6603 62.8869 18.617C63.0169 18.5737 63.1469 18.4957 63.2769 18.383L65.5909 16.303H65.7079V18.682H67.3849V19.02H65.7079V23.388C65.7079 23.804 65.7556 24.0987 65.8509 24.272C65.9549 24.4367 66.1283 24.519 66.3709 24.519C66.5616 24.519 66.7306 24.48 66.8779 24.402C67.0253 24.324 67.1856 24.1897 67.3589 23.999L67.5669 24.246C67.0209 24.8527 66.2149 25.156 65.1489 25.156C64.4296 25.156 63.9139 25.0043 63.6019 24.701C63.2899 24.3977 63.1339 23.9253 63.1339 23.284V19.02H62.2889ZM76.5667 21.841C76.5667 22.959 76.2157 23.791 75.5137 24.337C74.8204 24.883 73.8194 25.156 72.5107 25.156C71.202 25.156 70.1967 24.883 69.4947 24.337C68.8014 23.791 68.4547 22.959 68.4547 21.841C68.4547 20.723 68.8014 19.891 69.4947 19.345C70.1967 18.799 71.202 18.526 72.5107 18.526C73.8194 18.526 74.8204 18.799 75.5137 19.345C76.2157 19.891 76.5667 20.723 76.5667 21.841ZM71.1587 21.841C71.1587 22.6123 71.1934 23.206 71.2627 23.622C71.3407 24.038 71.475 24.3413 71.6657 24.532C71.8564 24.7227 72.138 24.818 72.5107 24.818C72.8834 24.818 73.165 24.7227 73.3557 24.532C73.5464 24.3413 73.6764 24.038 73.7457 23.622C73.8237 23.206 73.8627 22.6123 73.8627 21.841C73.8627 21.0697 73.8237 20.476 73.7457 20.06C73.6764 19.644 73.5464 19.3407 73.3557 19.15C73.165 18.9593 72.8834 18.864 72.5107 18.864C72.138 18.864 71.8564 18.9593 71.6657 19.15C71.475 19.3407 71.3407 19.644 71.2627 20.06C71.1934 20.476 71.1587 21.0697 71.1587 21.841ZM80.6959 24.844C81.1032 24.844 81.4022 24.7833 81.5929 24.662C81.7922 24.5407 81.8919 24.3283 81.8919 24.025C81.8919 23.817 81.8399 23.648 81.7359 23.518C81.6319 23.388 81.4672 23.271 81.2419 23.167C81.0166 23.063 80.6569 22.92 80.1629 22.738C79.3222 22.4347 78.7242 22.1227 78.3689 21.802C78.0136 21.4727 77.8359 21.022 77.8359 20.45C77.8359 19.8 78.0786 19.319 78.5639 19.007C79.0492 18.6863 79.7859 18.526 80.7739 18.526C81.2766 18.526 81.7706 18.578 82.2559 18.682C82.7412 18.7773 83.1182 18.89 83.3869 19.02L83.2309 20.58H83.0099C82.7759 19.9993 82.4942 19.5617 82.1649 19.267C81.8356 18.9637 81.3589 18.812 80.7349 18.812C80.3362 18.812 80.0286 18.8683 79.8119 18.981C79.5952 19.085 79.4869 19.28 79.4869 19.566C79.4869 19.7653 79.5346 19.9257 79.6299 20.047C79.7339 20.1683 79.8899 20.281 80.0979 20.385C80.3146 20.489 80.6699 20.6407 81.1639 20.84C81.8746 21.126 82.4119 21.373 82.7759 21.581C83.1399 21.789 83.4086 22.0273 83.5819 22.296C83.7552 22.5647 83.8419 22.9027 83.8419 23.31C83.8419 23.96 83.5906 24.4323 83.0879 24.727C82.5939 25.013 81.8486 25.156 80.8519 25.156C80.3232 25.156 79.7686 25.104 79.1879 25C78.6159 24.9047 78.1869 24.792 77.9009 24.662L78.0829 22.894H78.3039C78.4599 23.5787 78.7372 24.077 79.1359 24.389C79.5346 24.6923 80.0546 24.844 80.6959 24.844ZM86.8405 17.694C86.4332 17.694 86.1082 17.603 85.8655 17.421C85.6229 17.2303 85.5015 16.9573 85.5015 16.602C85.5015 16.2467 85.6229 15.978 85.8655 15.796C86.1082 15.6053 86.4332 15.51 86.8405 15.51C87.2479 15.51 87.5729 15.6053 87.8155 15.796C88.0582 15.978 88.1795 16.2467 88.1795 16.602C88.1795 16.9573 88.0582 17.2303 87.8155 17.421C87.5729 17.603 87.2479 17.694 86.8405 17.694ZM84.7735 24.766L85.2285 24.662C85.3585 24.636 85.4409 24.6057 85.4755 24.571C85.5189 24.5363 85.5405 24.4713 85.5405 24.376V19.462C85.5405 19.3667 85.5189 19.3017 85.4755 19.267C85.4409 19.2323 85.3585 19.202 85.2285 19.176L84.7735 19.072V18.838L87.8935 18.448H88.1405V24.376C88.1405 24.4713 88.1579 24.5363 88.1925 24.571C88.2359 24.6057 88.3225 24.636 88.4525 24.662L88.9075 24.766V25H84.7735V24.766ZM96.8006 24.363C96.8006 24.4583 96.8179 24.5233 96.8526 24.558C96.8959 24.584 96.9782 24.61 97.0996 24.636L97.5676 24.74V25H93.3556V24.74L93.8366 24.636C93.9666 24.61 94.0489 24.5797 94.0836 24.545C94.1269 24.5103 94.1486 24.4453 94.1486 24.35V16.55C94.1486 16.4547 94.1269 16.3897 94.0836 16.355C94.0489 16.3203 93.9666 16.29 93.8366 16.264L93.3556 16.16V15.9H97.5676V16.16L97.0996 16.264C96.9782 16.2813 96.8959 16.3073 96.8526 16.342C96.8179 16.3767 96.8006 16.4417 96.8006 16.537V20.151H100.207V16.537C100.207 16.4417 100.185 16.3767 100.142 16.342C100.107 16.3073 100.029 16.2813 99.9076 16.264L99.4396 16.16V15.9H103.652V16.16L103.171 16.264C103.041 16.29 102.954 16.3203 102.911 16.355C102.876 16.3897 102.859 16.4547 102.859 16.55V24.35C102.859 24.4453 102.876 24.5103 102.911 24.545C102.954 24.5797 103.041 24.61 103.171 24.636L103.652 24.74V25H99.4396V24.74L99.9076 24.636C100.029 24.61 100.107 24.584 100.142 24.558C100.185 24.5233 100.207 24.4583 100.207 24.363V20.541H96.8006V24.363ZM112.748 21.841C112.748 22.959 112.397 23.791 111.695 24.337C111.002 24.883 110.001 25.156 108.692 25.156C107.384 25.156 106.378 24.883 105.676 24.337C104.983 23.791 104.636 22.959 104.636 21.841C104.636 20.723 104.983 19.891 105.676 19.345C106.378 18.799 107.384 18.526 108.692 18.526C110.001 18.526 111.002 18.799 111.695 19.345C112.397 19.891 112.748 20.723 112.748 21.841ZM107.34 21.841C107.34 22.6123 107.375 23.206 107.444 23.622C107.522 24.038 107.657 24.3413 107.847 24.532C108.038 24.7227 108.32 24.818 108.692 24.818C109.065 24.818 109.347 24.7227 109.537 24.532C109.728 24.3413 109.858 24.038 109.927 23.622C110.005 23.206 110.044 22.6123 110.044 21.841C110.044 21.0697 110.005 20.476 109.927 20.06C109.858 19.644 109.728 19.3407 109.537 19.15C109.347 18.9593 109.065 18.864 108.692 18.864C108.32 18.864 108.038 18.9593 107.847 19.15C107.657 19.3407 107.522 19.644 107.444 20.06C107.375 20.476 107.34 21.0697 107.34 21.841ZM119.413 19.462C119.413 19.3667 119.391 19.3017 119.348 19.267C119.313 19.2323 119.231 19.202 119.101 19.176L118.646 19.072V18.838L121.792 18.448H122.013V24.376C122.013 24.4713 122.03 24.5363 122.065 24.571C122.108 24.6057 122.195 24.636 122.325 24.662L122.78 24.766V25H120.141C119.889 25 119.707 24.948 119.595 24.844C119.491 24.7313 119.439 24.558 119.439 24.324V24.181C119.127 24.4497 118.732 24.6793 118.256 24.87C117.779 25.0607 117.25 25.156 116.67 25.156C115.864 25.156 115.287 24.987 114.941 24.649C114.594 24.311 114.421 23.804 114.421 23.128V19.462C114.421 19.3667 114.399 19.3017 114.356 19.267C114.321 19.2323 114.239 19.202 114.109 19.176L113.654 19.072V18.838L116.8 18.448H117.021V23.362C117.021 23.752 117.081 24.0293 117.203 24.194C117.333 24.3587 117.545 24.441 117.84 24.441C118.36 24.441 118.884 24.2243 119.413 23.791V19.462ZM126.577 24.844C126.984 24.844 127.283 24.7833 127.474 24.662C127.673 24.5407 127.773 24.3283 127.773 24.025C127.773 23.817 127.721 23.648 127.617 23.518C127.513 23.388 127.348 23.271 127.123 23.167C126.897 23.063 126.538 22.92 126.044 22.738C125.203 22.4347 124.605 22.1227 124.25 21.802C123.894 21.4727 123.717 21.022 123.717 20.45C123.717 19.8 123.959 19.319 124.445 19.007C124.93 18.6863 125.667 18.526 126.655 18.526C127.157 18.526 127.651 18.578 128.137 18.682C128.622 18.7773 128.999 18.89 129.268 19.02L129.112 20.58H128.891C128.657 19.9993 128.375 19.5617 128.046 19.267C127.716 18.9637 127.24 18.812 126.616 18.812C126.217 18.812 125.909 18.8683 125.693 18.981C125.476 19.085 125.368 19.28 125.368 19.566C125.368 19.7653 125.415 19.9257 125.511 20.047C125.615 20.1683 125.771 20.281 125.979 20.385C126.195 20.489 126.551 20.6407 127.045 20.84C127.755 21.126 128.293 21.373 128.657 21.581C129.021 21.789 129.289 22.0273 129.463 22.296C129.636 22.5647 129.723 22.9027 129.723 23.31C129.723 23.96 129.471 24.4323 128.969 24.727C128.475 25.013 127.729 25.156 126.733 25.156C126.204 25.156 125.649 25.104 125.069 25C124.497 24.9047 124.068 24.792 123.782 24.662L123.964 22.894H124.185C124.341 23.5787 124.618 24.077 125.017 24.389C125.415 24.6923 125.935 24.844 126.577 24.844ZM133.644 21.672C133.653 22.634 133.805 23.3663 134.099 23.869C134.403 24.3717 134.966 24.623 135.789 24.623C136.197 24.623 136.556 24.5623 136.868 24.441C137.189 24.3197 137.518 24.1463 137.856 23.921L138.025 24.168C137.219 24.8267 136.153 25.156 134.827 25.156C133.631 25.156 132.687 24.87 131.993 24.298C131.309 23.7173 130.966 22.8723 130.966 21.763C130.966 20.7143 131.317 19.9127 132.019 19.358C132.721 18.8033 133.705 18.526 134.97 18.526C135.69 18.526 136.296 18.6387 136.79 18.864C137.284 19.0893 137.648 19.3927 137.882 19.774C138.125 20.1467 138.246 20.5627 138.246 21.022C138.246 21.256 138.225 21.4727 138.181 21.672H133.644ZM134.892 18.838C134.416 18.838 134.091 19.0373 133.917 19.436C133.744 19.8347 133.653 20.4673 133.644 21.334H135.828V20.359C135.828 19.8303 135.763 19.4447 135.633 19.202C135.512 18.9593 135.265 18.838 134.892 18.838Z" fill="white"/>
<path d="M154.344 20.25C153.93 20.25 153.594 20.5858 153.594 21C153.594 21.4142 153.93 21.75 154.344 21.75V20.25ZM166.188 21.5303C166.481 21.2374 166.481 20.7626 166.188 20.4697L161.415 15.6967C161.122 15.4038 160.647 15.4038 160.354 15.6967C160.061 15.9896 160.061 16.4645 160.354 16.7574L164.597 21L160.354 25.2426C160.061 25.5355 160.061 26.0104 160.354 26.3033C160.647 26.5962 161.122 26.5962 161.415 26.3033L166.188 21.5303ZM154.344 21.75H165.657V20.25H154.344V21.75Z" fill="white"/>
</svg>
