<svg width="261" height="74" viewBox="0 0 261 74" fill="none" xmlns="http://www.w3.org/2000/svg">
<path d="M25.839 25.363L18.975 8.302L12.705 25.363H11.649L2.871 3.484C2.761 3.198 2.64 3.011 2.508 2.923C2.398 2.813 2.211 2.736 1.947 2.692L0.726 2.56V1.9H11.55V2.56L10.263 2.692C9.955 2.736 9.801 2.912 9.801 3.22C9.801 3.286 9.823 3.407 9.867 3.583L14.883 16.651L18.414 6.883L17.061 3.484C16.951 3.198 16.83 3.011 16.698 2.923C16.588 2.813 16.401 2.736 16.137 2.692L14.982 2.56V1.9H25.806V2.56L24.453 2.692C24.145 2.736 23.991 2.912 23.991 3.22C23.991 3.286 24.013 3.407 24.057 3.583L29.073 16.651L33.858 3.451C33.924 3.275 33.957 3.154 33.957 3.088C33.957 2.846 33.792 2.714 33.462 2.692L32.076 2.56V1.9H37.092V2.56L35.871 2.692C35.607 2.714 35.42 2.78 35.31 2.89C35.2 3 35.079 3.198 34.947 3.484L26.895 25.363H25.839ZM60.571 23.416C60.571 23.658 60.615 23.823 60.703 23.911C60.813 23.999 61.033 24.076 61.363 24.142L62.518 24.406V25H55.654C55.06 25 54.631 24.846 54.367 24.538C54.103 24.23 53.971 23.768 53.971 23.152V13.12C53.971 12.13 53.806 11.426 53.476 11.008C53.168 10.59 52.64 10.381 51.892 10.381C50.572 10.381 49.219 10.931 47.833 12.031V23.416C47.833 23.658 47.877 23.834 47.965 23.944C48.075 24.032 48.284 24.109 48.592 24.175L49.714 24.406V25H39.286V24.406L40.441 24.142C40.771 24.076 40.98 23.999 41.068 23.911C41.178 23.823 41.233 23.658 41.233 23.416V3.484C41.233 3.242 41.178 3.077 41.068 2.989C40.98 2.901 40.771 2.824 40.441 2.758L39.286 2.494V1.9L47.206 0.909999H47.833V11.008C48.669 10.326 49.681 9.754 50.869 9.292C52.057 8.808 53.388 8.566 54.862 8.566C56.908 8.566 58.371 8.995 59.251 9.853C60.131 10.711 60.571 11.998 60.571 13.714V23.416ZM86.146 16.981C86.146 19.819 85.255 21.931 83.473 23.317C81.713 24.703 79.172 25.396 75.85 25.396C72.528 25.396 69.976 24.703 68.194 23.317C66.434 21.931 65.554 19.819 65.554 16.981C65.554 14.143 66.434 12.031 68.194 10.645C69.976 9.259 72.528 8.566 75.85 8.566C79.172 8.566 81.713 9.259 83.473 10.645C85.255 12.031 86.146 14.143 86.146 16.981ZM72.418 16.981C72.418 18.939 72.506 20.446 72.682 21.502C72.88 22.558 73.221 23.328 73.705 23.812C74.189 24.296 74.904 24.538 75.85 24.538C76.796 24.538 77.511 24.296 77.995 23.812C78.479 23.328 78.809 22.558 78.985 21.502C79.183 20.446 79.282 18.939 79.282 16.981C79.282 15.023 79.183 13.516 78.985 12.46C78.809 11.404 78.479 10.634 77.995 10.15C77.511 9.666 76.796 9.424 75.85 9.424C74.904 9.424 74.189 9.666 73.705 10.15C73.221 10.634 72.88 11.404 72.682 12.46C72.506 13.516 72.418 15.023 72.418 16.981ZM93.5259 6.718C93.3719 6.74 93.1629 6.751 92.8989 6.751C92.0629 6.751 91.4249 6.52 90.9849 6.058C90.5669 5.574 90.3579 4.98 90.3579 4.276C90.3579 3.528 90.5999 2.901 91.0839 2.395C91.5899 1.889 92.2719 1.636 93.1299 1.636C94.0099 1.636 94.7139 1.889 95.2419 2.395C95.7699 2.879 96.0339 3.594 96.0339 4.54C96.0339 5.816 95.6489 7.114 94.8789 8.434C94.1089 9.732 93.1629 10.821 92.0409 11.701L91.3809 11.008C92.8109 9.49 93.5259 8.06 93.5259 6.718ZM107.713 24.604C108.747 24.604 109.506 24.45 109.99 24.142C110.496 23.834 110.749 23.295 110.749 22.525C110.749 21.997 110.617 21.568 110.353 21.238C110.089 20.908 109.671 20.611 109.099 20.347C108.527 20.083 107.614 19.72 106.36 19.258C104.226 18.488 102.708 17.696 101.806 16.882C100.904 16.046 100.453 14.902 100.453 13.45C100.453 11.8 101.069 10.579 102.301 9.787C103.533 8.973 105.403 8.566 107.911 8.566C109.187 8.566 110.441 8.698 111.673 8.962C112.905 9.204 113.862 9.49 114.544 9.82L114.148 13.78H113.587C112.993 12.306 112.278 11.195 111.442 10.447C110.606 9.677 109.396 9.292 107.812 9.292C106.8 9.292 106.019 9.435 105.469 9.721C104.919 9.985 104.644 10.48 104.644 11.206C104.644 11.712 104.765 12.119 105.007 12.427C105.271 12.735 105.667 13.021 106.195 13.285C106.745 13.549 107.647 13.934 108.901 14.44C110.705 15.166 112.069 15.793 112.993 16.321C113.917 16.849 114.599 17.454 115.039 18.136C115.479 18.818 115.699 19.676 115.699 20.71C115.699 22.36 115.061 23.559 113.785 24.307C112.531 25.033 110.639 25.396 108.109 25.396C106.767 25.396 105.359 25.264 103.885 25C102.433 24.758 101.344 24.472 100.618 24.142L101.08 19.654H101.641C102.037 21.392 102.741 22.657 103.753 23.449C104.765 24.219 106.085 24.604 107.713 24.604ZM12.342 49.566C15.092 49.566 17.347 50.006 19.107 50.886L18.711 55.209H18.084C17.622 53.581 17.006 52.382 16.236 51.612C15.488 50.82 14.388 50.424 12.936 50.424C11.33 50.424 10.186 50.985 9.504 52.107C8.844 53.229 8.514 54.89 8.514 57.09C8.514 58.916 8.657 60.39 8.943 61.512C9.229 62.634 9.746 63.492 10.494 64.086C11.242 64.658 12.298 64.944 13.662 64.944C14.696 64.944 15.642 64.801 16.5 64.515C17.358 64.207 18.205 63.767 19.041 63.195L19.47 63.822C18.436 64.614 17.27 65.241 15.972 65.703C14.696 66.165 13.2 66.396 11.484 66.396C8.382 66.396 5.962 65.681 4.224 64.251C2.508 62.821 1.65 60.665 1.65 57.783C1.65 55.055 2.552 53.009 4.356 51.645C6.16 50.259 8.822 49.566 12.342 49.566ZM43.8815 57.981C43.8815 60.819 42.9905 62.931 41.2085 64.317C39.4485 65.703 36.9075 66.396 33.5855 66.396C30.2635 66.396 27.7115 65.703 25.9295 64.317C24.1695 62.931 23.2895 60.819 23.2895 57.981C23.2895 55.143 24.1695 53.031 25.9295 51.645C27.7115 50.259 30.2635 49.566 33.5855 49.566C36.9075 49.566 39.4485 50.259 41.2085 51.645C42.9905 53.031 43.8815 55.143 43.8815 57.981ZM30.1535 57.981C30.1535 59.939 30.2415 61.446 30.4175 62.502C30.6155 63.558 30.9565 64.328 31.4405 64.812C31.9245 65.296 32.6395 65.538 33.5855 65.538C34.5315 65.538 35.2465 65.296 35.7305 64.812C36.2145 64.328 36.5445 63.558 36.7205 62.502C36.9185 61.446 37.0175 59.939 37.0175 57.981C37.0175 56.023 36.9185 54.516 36.7205 53.46C36.5445 52.404 36.2145 51.634 35.7305 51.15C35.2465 50.666 34.5315 50.424 33.5855 50.424C32.6395 50.424 31.9245 50.666 31.4405 51.15C30.9565 51.634 30.6155 52.404 30.4175 53.46C30.2415 54.516 30.1535 56.023 30.1535 57.981ZM55.4524 51.678C56.2884 51.084 57.2674 50.589 58.3894 50.193C59.5114 49.775 60.7434 49.566 62.0854 49.566C64.8134 49.566 66.5514 50.38 67.2994 52.008C68.1354 51.326 69.1474 50.754 70.3354 50.292C71.5454 49.808 72.8874 49.566 74.3614 49.566C76.4074 49.566 77.8704 49.995 78.7504 50.853C79.6304 51.711 80.0704 52.998 80.0704 54.714V64.416C80.0704 64.658 80.1144 64.823 80.2024 64.911C80.3124 64.999 80.5324 65.076 80.8624 65.142L82.0174 65.406V66H75.1534C74.5594 66 74.1304 65.846 73.8664 65.538C73.6024 65.23 73.4704 64.768 73.4704 64.152V54.12C73.4704 53.13 73.3054 52.426 72.9754 52.008C72.6674 51.59 72.1394 51.381 71.3914 51.381C70.2034 51.381 68.9384 51.865 67.5964 52.833C67.7284 53.383 67.7944 54.01 67.7944 54.714V64.416C67.7944 64.658 67.8384 64.823 67.9264 64.911C68.0364 64.999 68.2564 65.076 68.5864 65.142L69.7414 65.406V66H62.8774C62.2834 66 61.8544 65.846 61.5904 65.538C61.3264 65.23 61.1944 64.768 61.1944 64.152V54.12C61.1944 53.13 61.0294 52.426 60.6994 52.008C60.3914 51.59 59.8634 51.381 59.1154 51.381C57.9494 51.381 56.7504 51.821 55.5184 52.701V64.416C55.5184 64.658 55.5624 64.834 55.6504 64.944C55.7604 65.032 55.9694 65.109 56.2774 65.175L57.3994 65.406V66H46.9714V65.406L48.1264 65.142C48.4564 65.076 48.6654 64.999 48.7534 64.911C48.8634 64.823 48.9184 64.658 48.9184 64.416V51.942C48.9184 51.7 48.8634 51.535 48.7534 51.447C48.6654 51.359 48.4564 51.282 48.1264 51.216L46.9714 50.952V50.358L54.8914 49.368H55.4524V51.678ZM92.6895 51.678C93.5255 51.084 94.5045 50.589 95.6265 50.193C96.7485 49.775 97.9805 49.566 99.3225 49.566C102.051 49.566 103.789 50.38 104.537 52.008C105.373 51.326 106.385 50.754 107.573 50.292C108.783 49.808 110.125 49.566 111.599 49.566C113.645 49.566 115.108 49.995 115.988 50.853C116.868 51.711 117.308 52.998 117.308 54.714V64.416C117.308 64.658 117.352 64.823 117.44 64.911C117.55 64.999 117.77 65.076 118.1 65.142L119.255 65.406V66H112.391C111.797 66 111.368 65.846 111.104 65.538C110.84 65.23 110.708 64.768 110.708 64.152V54.12C110.708 53.13 110.543 52.426 110.213 52.008C109.905 51.59 109.377 51.381 108.629 51.381C107.441 51.381 106.176 51.865 104.834 52.833C104.966 53.383 105.032 54.01 105.032 54.714V64.416C105.032 64.658 105.076 64.823 105.164 64.911C105.274 64.999 105.494 65.076 105.824 65.142L106.979 65.406V66H100.115C99.5205 66 99.0915 65.846 98.8275 65.538C98.5635 65.23 98.4315 64.768 98.4315 64.152V54.12C98.4315 53.13 98.2665 52.426 97.9365 52.008C97.6285 51.59 97.1005 51.381 96.3525 51.381C95.1865 51.381 93.9875 51.821 92.7555 52.701V64.416C92.7555 64.658 92.7995 64.834 92.8875 64.944C92.9975 65.032 93.2065 65.109 93.5145 65.175L94.6365 65.406V66H84.2085V65.406L85.3635 65.142C85.6935 65.076 85.9025 64.999 85.9905 64.911C86.1005 64.823 86.1555 64.658 86.1555 64.416V51.942C86.1555 51.7 86.1005 51.535 85.9905 51.447C85.9025 51.359 85.6935 51.282 85.3635 51.216L84.2085 50.952V50.358L92.1285 49.368H92.6895V51.678ZM126.759 47.454C125.725 47.454 124.9 47.223 124.284 46.761C123.668 46.277 123.36 45.584 123.36 44.682C123.36 43.78 123.668 43.098 124.284 42.636C124.9 42.152 125.725 41.91 126.759 41.91C127.793 41.91 128.618 42.152 129.234 42.636C129.85 43.098 130.158 43.78 130.158 44.682C130.158 45.584 129.85 46.277 129.234 46.761C128.618 47.223 127.793 47.454 126.759 47.454ZM121.512 65.406L122.667 65.142C122.997 65.076 123.206 64.999 123.294 64.911C123.404 64.823 123.459 64.658 123.459 64.416V51.942C123.459 51.7 123.404 51.535 123.294 51.447C123.206 51.359 122.997 51.282 122.667 51.216L121.512 50.952V50.358L129.432 49.368H130.059V64.416C130.059 64.658 130.103 64.823 130.191 64.911C130.301 64.999 130.521 65.076 130.851 65.142L132.006 65.406V66H121.512V65.406ZM155.605 64.416C155.605 64.658 155.649 64.823 155.737 64.911C155.847 64.999 156.067 65.076 156.397 65.142L157.552 65.406V66H150.688C150.094 66 149.665 65.846 149.401 65.538C149.137 65.23 149.005 64.768 149.005 64.152V54.12C149.005 53.13 148.84 52.426 148.51 52.008C148.202 51.59 147.674 51.381 146.926 51.381C145.606 51.381 144.253 51.931 142.867 53.031V64.416C142.867 64.658 142.911 64.834 142.999 64.944C143.109 65.032 143.318 65.109 143.626 65.175L144.748 65.406V66H134.32V65.406L135.475 65.142C135.805 65.076 136.014 64.999 136.102 64.911C136.212 64.823 136.267 64.658 136.267 64.416V51.942C136.267 51.7 136.212 51.535 136.102 51.447C136.014 51.359 135.805 51.282 135.475 51.216L134.32 50.952V50.358L142.24 49.368H142.801V52.041C143.637 51.359 144.66 50.776 145.87 50.292C147.08 49.808 148.422 49.566 149.896 49.566C151.942 49.566 153.405 49.995 154.285 50.853C155.165 51.711 155.605 52.998 155.605 54.714V64.416ZM178.474 50.193C177.594 49.951 176.824 49.83 176.164 49.83C175.548 49.83 175.053 49.951 174.679 50.193C177.473 50.985 178.87 52.569 178.87 54.945C178.87 56.859 178.111 58.245 176.593 59.103C175.075 59.939 172.93 60.357 170.158 60.357C168.596 60.357 167.243 60.214 166.099 59.928C165.417 59.972 164.812 60.093 164.284 60.291C163.778 60.467 163.525 60.709 163.525 61.017C163.525 61.347 163.668 61.6 163.954 61.776C164.24 61.93 164.691 62.062 165.307 62.172C165.923 62.26 166.946 62.37 168.376 62.502L173.986 63.03C175.57 63.184 176.824 63.437 177.748 63.789C178.694 64.119 179.376 64.614 179.794 65.274C180.234 65.912 180.454 66.759 180.454 67.815C180.454 69.223 179.937 70.378 178.903 71.28C177.891 72.204 176.582 72.875 174.976 73.293C173.37 73.711 171.654 73.92 169.828 73.92C167.21 73.92 165.054 73.557 163.36 72.831C161.688 72.127 160.852 71.049 160.852 69.597C160.852 68.673 161.215 67.958 161.941 67.452C162.667 66.946 163.624 66.616 164.812 66.462C162.304 65.868 161.05 64.691 161.05 62.931C161.05 61.017 162.216 59.851 164.548 59.433C162.48 58.531 161.446 57.035 161.446 54.945C161.446 53.031 162.194 51.667 163.69 50.853C165.208 50.039 167.364 49.632 170.158 49.632C171.5 49.676 172.666 49.786 173.656 49.962C174.294 48.994 175.185 48.202 176.329 47.586C177.473 46.948 178.848 46.629 180.454 46.629L179.662 50.424H179.299L178.474 50.193ZM170.158 59.532C171.192 59.532 171.885 59.169 172.237 58.443C172.611 57.695 172.798 56.529 172.798 54.945C172.798 53.427 172.611 52.305 172.237 51.579C171.885 50.831 171.192 50.457 170.158 50.457C169.124 50.457 168.42 50.831 168.046 51.579C167.694 52.305 167.518 53.427 167.518 54.945C167.518 56.529 167.694 57.695 168.046 58.443C168.42 59.169 169.124 59.532 170.158 59.532ZM168.244 67.023C167.078 66.869 166.264 66.748 165.802 66.66C165.516 67.276 165.373 68.057 165.373 69.003C165.373 70.367 165.703 71.379 166.363 72.039C167.023 72.699 168.255 73.029 170.059 73.029C172.171 73.029 173.81 72.765 174.976 72.237C176.142 71.731 176.725 70.972 176.725 69.96C176.725 69.388 176.604 68.948 176.362 68.64C176.142 68.354 175.768 68.123 175.24 67.947C174.712 67.793 173.931 67.661 172.897 67.551L168.244 67.023ZM207.956 51.942C207.956 51.7 207.901 51.535 207.791 51.447C207.703 51.359 207.494 51.282 207.164 51.216L206.009 50.952V50.358L213.995 49.368H214.556V64.416C214.556 64.658 214.6 64.823 214.688 64.911C214.798 64.999 215.018 65.076 215.348 65.142L216.503 65.406V66H209.804C209.166 66 208.704 65.868 208.418 65.604C208.154 65.318 208.022 64.878 208.022 64.284V63.921C207.23 64.603 206.229 65.186 205.019 65.67C203.809 66.154 202.467 66.396 200.993 66.396C198.947 66.396 197.484 65.967 196.604 65.109C195.724 64.251 195.284 62.964 195.284 61.248V51.942C195.284 51.7 195.229 51.535 195.119 51.447C195.031 51.359 194.822 51.282 194.492 51.216L193.337 50.952V50.358L201.323 49.368H201.884V61.842C201.884 62.832 202.038 63.536 202.346 63.954C202.676 64.372 203.215 64.581 203.963 64.581C205.283 64.581 206.614 64.031 207.956 62.931V51.942ZM218.751 72.864L219.906 72.6C220.236 72.534 220.445 72.457 220.533 72.369C220.643 72.281 220.698 72.116 220.698 71.874V51.942C220.698 51.7 220.643 51.535 220.533 51.447C220.445 51.359 220.236 51.282 219.906 51.216L218.751 50.952V50.358L226.671 49.368H227.232V51.282C228.706 50.138 230.62 49.566 232.974 49.566C235.416 49.566 237.352 50.226 238.782 51.546C240.212 52.866 240.927 54.945 240.927 57.783C240.927 60.709 240.212 62.865 238.782 64.251C237.352 65.637 235.416 66.33 232.974 66.33C230.532 66.33 228.64 65.615 227.298 64.185V71.874C227.298 72.116 227.342 72.281 227.43 72.369C227.54 72.457 227.76 72.534 228.09 72.6L229.245 72.864V73.458H218.751V72.864ZM230.862 50.952C229.498 50.952 228.31 51.37 227.298 52.206V63.063C227.804 63.613 228.376 64.064 229.014 64.416C229.652 64.746 230.323 64.911 231.027 64.911C231.819 64.911 232.435 64.669 232.875 64.185C233.337 63.701 233.656 62.953 233.832 61.941C234.03 60.907 234.129 59.521 234.129 57.783C234.129 55.341 233.887 53.592 233.403 52.536C232.919 51.48 232.072 50.952 230.862 50.952ZM251.226 54.384C253.25 52.778 254.262 50.644 254.262 47.982C254.262 45.43 253.008 44.154 250.5 44.154C249.29 44.154 248.256 44.308 247.398 44.616C246.562 44.924 245.638 45.43 244.626 46.134L244.23 45.507C245.572 44.539 246.936 43.802 248.322 43.296C249.708 42.768 251.446 42.504 253.536 42.504C255.802 42.504 257.529 42.944 258.717 43.824C259.927 44.682 260.532 45.969 260.532 47.685C260.532 49.731 259.817 51.271 258.387 52.305C256.979 53.317 255.164 54.01 252.942 54.384L252.513 58.707H251.589L251.226 54.384ZM252.051 66.264C251.281 66.264 250.621 66 250.071 65.472C249.543 64.944 249.279 64.306 249.279 63.558C249.279 62.81 249.543 62.172 250.071 61.644C250.621 61.116 251.281 60.852 252.051 60.852C252.821 60.852 253.47 61.116 253.998 61.644C254.548 62.172 254.823 62.81 254.823 63.558C254.823 64.306 254.548 64.944 253.998 65.472C253.47 66 252.821 66.264 252.051 66.264Z" fill="black"/>
</svg>
