<svg width="276" height="73" viewBox="0 0 276 73" fill="none" xmlns="http://www.w3.org/2000/svg">
<path d="M10.395 23.505C11.825 23.505 12.936 23.23 13.728 22.68C14.52 22.13 14.916 21.338 14.916 20.304C14.916 19.468 14.729 18.775 14.355 18.225C14.003 17.675 13.453 17.169 12.705 16.707C11.957 16.245 10.857 15.695 9.405 15.057C7.557 14.243 6.127 13.528 5.115 12.912C4.103 12.274 3.3 11.482 2.706 10.536C2.134 9.568 1.848 8.347 1.848 6.873C1.848 4.761 2.596 3.177 4.092 2.121C5.588 1.043 7.964 0.504 11.22 0.504C12.672 0.504 14.069 0.646999 15.411 0.932998C16.775 1.219 17.919 1.582 18.843 2.022L18.051 7.071H17.16C16.742 5.729 16.302 4.662 15.84 3.87C15.4 3.078 14.795 2.473 14.025 2.055C13.255 1.615 12.232 1.395 10.956 1.395C8.052 1.395 6.6 2.341 6.6 4.233C6.6 5.003 6.776 5.641 7.128 6.147C7.48 6.653 8.008 7.115 8.712 7.533C9.416 7.929 10.582 8.523 12.21 9.315L12.87 9.612C14.916 10.602 16.423 11.405 17.391 12.021C18.381 12.637 19.162 13.407 19.734 14.331C20.306 15.233 20.592 16.41 20.592 17.862C20.592 20.018 19.778 21.646 18.15 22.746C16.544 23.846 14.014 24.396 10.56 24.396C9.174 24.396 7.634 24.242 5.94 23.934C4.268 23.626 2.97 23.252 2.046 22.812L2.937 17.004H3.795C4.081 18.72 4.51 20.051 5.082 20.997C5.654 21.943 6.369 22.603 7.227 22.977C8.085 23.329 9.141 23.505 10.395 23.505ZM45.2672 15.981C45.2672 18.819 44.3762 20.931 42.5942 22.317C40.8342 23.703 38.2932 24.396 34.9712 24.396C31.6492 24.396 29.0972 23.703 27.3152 22.317C25.5552 20.931 24.6752 18.819 24.6752 15.981C24.6752 13.143 25.5552 11.031 27.3152 9.645C29.0972 8.259 31.6492 7.566 34.9712 7.566C38.2932 7.566 40.8342 8.259 42.5942 9.645C44.3762 11.031 45.2672 13.143 45.2672 15.981ZM31.5392 15.981C31.5392 17.939 31.6272 19.446 31.8032 20.502C32.0012 21.558 32.3422 22.328 32.8262 22.812C33.3102 23.296 34.0252 23.538 34.9712 23.538C35.9172 23.538 36.6322 23.296 37.1162 22.812C37.6002 22.328 37.9302 21.558 38.1062 20.502C38.3042 19.446 38.4032 17.939 38.4032 15.981C38.4032 14.023 38.3042 12.516 38.1062 11.46C37.9302 10.404 37.6002 9.634 37.1162 9.15C36.6322 8.666 35.9172 8.424 34.9712 8.424C34.0252 8.424 33.3102 8.666 32.8262 9.15C32.3422 9.634 32.0012 10.404 31.8032 11.46C31.6272 12.516 31.5392 14.023 31.5392 15.981ZM56.8381 10.602C58.7521 8.644 60.6991 7.665 62.6791 7.665C63.4051 7.665 63.9771 7.753 64.3951 7.929L63.9001 13.077H63.6691L56.9041 11.592V22.416C56.9041 22.658 56.9481 22.834 57.0361 22.944C57.1461 23.032 57.3551 23.109 57.6631 23.175L58.7851 23.406V24H48.3571V23.406L49.5121 23.142C49.8421 23.076 50.0511 22.999 50.1391 22.911C50.2491 22.823 50.3041 22.658 50.3041 22.416V9.942C50.3041 9.7 50.2491 9.535 50.1391 9.447C50.0511 9.359 49.8421 9.282 49.5121 9.216L48.3571 8.952V8.358L56.2771 7.368H56.8381V10.602ZM75.3194 10.602C77.2334 8.644 79.1804 7.665 81.1604 7.665C81.8864 7.665 82.4584 7.753 82.8764 7.929L82.3814 13.077H82.1504L75.3854 11.592V22.416C75.3854 22.658 75.4294 22.834 75.5174 22.944C75.6274 23.032 75.8364 23.109 76.1444 23.175L77.2664 23.406V24H66.8384V23.406L67.9934 23.142C68.3234 23.076 68.5324 22.999 68.6204 22.911C68.7304 22.823 68.7854 22.658 68.7854 22.416V9.942C68.7854 9.7 68.7304 9.535 68.6204 9.447C68.5324 9.359 68.3234 9.282 67.9934 9.216L66.8384 8.952V8.358L74.7584 7.368H75.3194V10.602ZM94.1637 8.655C93.6577 8.765 93.4047 8.974 93.4047 9.282C93.4047 9.414 93.4597 9.59 93.5697 9.81L97.3977 17.499L100.995 9.117C101.061 8.985 101.094 8.875 101.094 8.787C101.094 8.655 100.951 8.578 100.665 8.556L99.8067 8.457V7.962H103.602V8.457L102.744 8.589C102.48 8.633 102.293 8.688 102.183 8.754C102.073 8.82 101.963 8.974 101.853 9.216L95.4177 24C94.5377 26.046 93.8117 27.542 93.2397 28.488C92.6897 29.456 92.0627 30.193 91.3587 30.699C90.6767 31.227 89.7527 31.634 88.5867 31.92L86.8047 26.904C88.3007 26.838 89.7197 26.585 91.0617 26.145C92.4037 25.727 93.5587 25.188 94.5267 24.528L86.5737 9.348C86.4637 9.15 86.3317 9.007 86.1777 8.919C86.0457 8.831 85.8697 8.765 85.6497 8.721L84.6597 8.457V7.962H95.0217V8.457L94.1637 8.655ZM109.147 23.934C108.993 23.956 108.784 23.967 108.52 23.967C107.684 23.967 107.046 23.736 106.606 23.274C106.188 22.79 105.979 22.196 105.979 21.492C105.979 20.744 106.221 20.117 106.705 19.611C107.211 19.105 107.893 18.852 108.751 18.852C109.631 18.852 110.335 19.105 110.863 19.611C111.391 20.095 111.655 20.81 111.655 21.756C111.655 23.032 111.27 24.319 110.5 25.617C109.73 26.937 108.784 28.037 107.662 28.917L107.002 28.224C108.432 26.706 109.147 25.276 109.147 23.934ZM13.86 64.34L15.279 64.208C15.587 64.164 15.741 64.043 15.741 63.845C15.741 63.735 15.708 63.603 15.642 63.449L13.464 58.631H5.808L3.828 63.449C3.762 63.603 3.729 63.735 3.729 63.845C3.729 64.043 3.883 64.164 4.191 64.208L5.61 64.34V65H0.594V64.34L1.815 64.208C2.079 64.186 2.266 64.12 2.376 64.01C2.486 63.9 2.607 63.702 2.739 63.416L11.88 41.537H12.936L22.605 63.416C22.737 63.702 22.858 63.9 22.968 64.01C23.078 64.12 23.265 64.186 23.529 64.208L24.75 64.34V65H13.86V64.34ZM13.035 57.641L9.471 49.754L6.204 57.641H13.035ZM26.7821 64.406L27.9371 64.142C28.2671 64.076 28.4761 63.999 28.5641 63.911C28.6741 63.823 28.7291 63.658 28.7291 63.416V43.484C28.7291 43.242 28.6741 43.077 28.5641 42.989C28.4761 42.901 28.2671 42.824 27.9371 42.758L26.7821 42.494V41.9L34.7021 40.91H35.3291V63.416C35.3291 63.658 35.3731 63.823 35.4611 63.911C35.5711 63.999 35.7911 64.076 36.1211 64.142L37.2761 64.406V65H26.7821V64.406ZM48.008 51.602C49.922 49.644 51.869 48.665 53.849 48.665C54.575 48.665 55.147 48.753 55.565 48.929L55.07 54.077H54.839L48.074 52.592V63.416C48.074 63.658 48.118 63.834 48.206 63.944C48.316 64.032 48.525 64.109 48.833 64.175L49.955 64.406V65H39.527V64.406L40.682 64.142C41.012 64.076 41.221 63.999 41.309 63.911C41.419 63.823 41.474 63.658 41.474 63.416V50.942C41.474 50.7 41.419 50.535 41.309 50.447C41.221 50.359 41.012 50.282 40.682 50.216L39.527 49.952V49.358L47.447 48.368H48.008V51.602ZM65.6643 56.552C65.6863 58.994 66.0713 60.853 66.8193 62.129C67.5893 63.405 69.0193 64.043 71.1093 64.043C72.1433 64.043 73.0563 63.889 73.8483 63.581C74.6623 63.273 75.4983 62.833 76.3563 62.261L76.7853 62.888C74.7393 64.56 72.0333 65.396 68.6673 65.396C65.6313 65.396 63.2333 64.67 61.4733 63.218C59.7353 61.744 58.8663 59.599 58.8663 56.783C58.8663 54.121 59.7573 52.086 61.5393 50.678C63.3213 49.27 65.8183 48.566 69.0303 48.566C70.8563 48.566 72.3963 48.852 73.6503 49.424C74.9043 49.996 75.8283 50.766 76.4223 51.734C77.0383 52.68 77.3463 53.736 77.3463 54.902C77.3463 55.496 77.2913 56.046 77.1813 56.552H65.6643ZM68.8323 49.358C67.6223 49.358 66.7973 49.864 66.3573 50.876C65.9173 51.888 65.6863 53.494 65.6643 55.694H71.2083V53.219C71.2083 51.877 71.0433 50.898 70.7133 50.282C70.4053 49.666 69.7783 49.358 68.8323 49.358ZM93.391 65C92.775 65 92.335 64.879 92.071 64.637C91.829 64.373 91.708 63.944 91.708 63.35V63.185C90.234 64.615 88.133 65.33 85.405 65.33C83.975 65.33 82.853 65.011 82.039 64.373C81.247 63.713 80.851 62.701 80.851 61.337C80.851 59.973 81.247 58.906 82.039 58.136C82.853 57.366 84.03 56.816 85.57 56.486C87.11 56.156 89.156 55.958 91.708 55.892V53.483C91.708 52.251 91.466 51.371 90.982 50.843C90.498 50.293 89.651 50.018 88.441 50.018C87.429 50.018 86.483 50.161 85.603 50.447C84.745 50.711 83.865 51.118 82.963 51.668L82.534 51.041C83.59 50.293 84.855 49.699 86.329 49.259C87.825 48.797 89.497 48.566 91.345 48.566C93.831 48.566 95.602 49.061 96.658 50.051C97.714 51.019 98.242 52.427 98.242 54.275V63.416C98.242 63.658 98.286 63.823 98.374 63.911C98.484 63.999 98.704 64.076 99.034 64.142L100.189 64.406V65H93.391ZM89.101 63.251C90.047 63.251 90.916 62.877 91.708 62.129V56.783C90.476 56.871 89.541 57.069 88.903 57.377C88.265 57.663 87.825 58.081 87.583 58.631C87.363 59.181 87.253 59.929 87.253 60.875C87.253 61.711 87.396 62.316 87.682 62.69C87.99 63.064 88.463 63.251 89.101 63.251ZM118.522 65C117.928 65 117.499 64.846 117.235 64.538C116.971 64.23 116.839 63.768 116.839 63.152C115.431 64.648 113.517 65.396 111.097 65.396C108.677 65.396 106.741 64.703 105.289 63.317C103.859 61.931 103.144 59.764 103.144 56.816C103.144 53.978 103.859 51.899 105.289 50.579C106.719 49.237 108.655 48.566 111.097 48.566C112.417 48.566 113.517 48.72 114.397 49.028C115.299 49.336 116.091 49.732 116.773 50.216V43.484C116.773 43.242 116.718 43.077 116.608 42.989C116.52 42.901 116.311 42.824 115.981 42.758L114.826 42.494V41.9L122.746 40.91H123.373V63.416C123.373 63.658 123.417 63.823 123.505 63.911C123.615 63.999 123.835 64.076 124.165 64.142L125.32 64.406V65H118.522ZM113.044 63.977C114.342 63.977 115.585 63.361 116.773 62.129V51.206C115.717 50.37 114.529 49.952 113.209 49.952C111.999 49.952 111.152 50.491 110.668 51.569C110.184 52.625 109.942 54.374 109.942 56.816C109.942 58.554 110.03 59.94 110.206 60.974C110.404 61.986 110.723 62.745 111.163 63.251C111.625 63.735 112.252 63.977 113.044 63.977ZM136.411 49.655C135.905 49.765 135.652 49.974 135.652 50.282C135.652 50.414 135.707 50.59 135.817 50.81L139.645 58.499L143.242 50.117C143.308 49.985 143.341 49.875 143.341 49.787C143.341 49.655 143.198 49.578 142.912 49.556L142.054 49.457V48.962H145.849V49.457L144.991 49.589C144.727 49.633 144.54 49.688 144.43 49.754C144.32 49.82 144.21 49.974 144.1 50.216L137.665 65C136.785 67.046 136.059 68.542 135.487 69.488C134.937 70.456 134.31 71.193 133.606 71.699C132.924 72.227 132 72.634 130.834 72.92L129.052 67.904C130.548 67.838 131.967 67.585 133.309 67.145C134.651 66.727 135.806 66.188 136.774 65.528L128.821 50.348C128.711 50.15 128.579 50.007 128.425 49.919C128.293 49.831 128.117 49.765 127.897 49.721L126.907 49.457V48.962H137.269V49.457L136.411 49.655ZM157.6 49.82V48.962C158.282 48.962 158.788 48.907 159.118 48.797C159.448 48.687 159.778 48.489 160.108 48.203L165.982 42.923H166.279V48.962H170.536V49.82H166.279V60.908C166.279 61.964 166.4 62.712 166.642 63.152C166.906 63.57 167.346 63.779 167.962 63.779C168.446 63.779 168.875 63.68 169.249 63.482C169.623 63.284 170.03 62.943 170.47 62.459L170.998 63.086C169.612 64.626 167.566 65.396 164.86 65.396C163.034 65.396 161.725 65.011 160.933 64.241C160.141 63.471 159.745 62.272 159.745 60.644V49.82H157.6ZM186.055 65C185.439 65 184.999 64.879 184.735 64.637C184.493 64.373 184.372 63.944 184.372 63.35V63.185C182.898 64.615 180.797 65.33 178.069 65.33C176.639 65.33 175.517 65.011 174.703 64.373C173.911 63.713 173.515 62.701 173.515 61.337C173.515 59.973 173.911 58.906 174.703 58.136C175.517 57.366 176.694 56.816 178.234 56.486C179.774 56.156 181.82 55.958 184.372 55.892V53.483C184.372 52.251 184.13 51.371 183.646 50.843C183.162 50.293 182.315 50.018 181.105 50.018C180.093 50.018 179.147 50.161 178.267 50.447C177.409 50.711 176.529 51.118 175.627 51.668L175.198 51.041C176.254 50.293 177.519 49.699 178.993 49.259C180.489 48.797 182.161 48.566 184.009 48.566C186.495 48.566 188.266 49.061 189.322 50.051C190.378 51.019 190.906 52.427 190.906 54.275V63.416C190.906 63.658 190.95 63.823 191.038 63.911C191.148 63.999 191.368 64.076 191.698 64.142L192.853 64.406V65H186.055ZM181.765 63.251C182.711 63.251 183.58 62.877 184.372 62.129V56.783C183.14 56.871 182.205 57.069 181.567 57.377C180.929 57.663 180.489 58.081 180.247 58.631C180.027 59.181 179.917 59.929 179.917 60.875C179.917 61.711 180.06 62.316 180.346 62.69C180.654 63.064 181.127 63.251 181.765 63.251ZM210.065 51.536C210.065 50.458 209.713 49.875 209.009 49.787L208.646 49.754V49.16C209.966 48.764 211.253 48.566 212.507 48.566C213.805 48.566 214.707 48.797 215.213 49.259C215.719 49.721 215.972 50.392 215.972 51.272C215.972 52.482 215.51 53.582 214.586 54.572C213.662 55.562 212.045 56.222 209.735 56.552C210.329 56.706 210.824 56.937 211.22 57.245C211.616 57.553 212.067 58.026 212.573 58.664L216.236 63.482C216.434 63.724 216.599 63.9 216.731 64.01C216.863 64.098 217.05 64.164 217.292 64.208L218.315 64.406V65H211.979C211.385 65 210.923 64.912 210.593 64.736C210.263 64.538 209.977 64.252 209.735 63.878L204.62 56.75H203.498V63.416C203.498 63.658 203.542 63.834 203.63 63.944C203.74 64.032 203.949 64.109 204.257 64.175L205.379 64.406V65H194.951V64.406L196.106 64.142C196.436 64.076 196.645 63.999 196.733 63.911C196.843 63.823 196.898 63.658 196.898 63.416V43.484C196.898 43.242 196.843 43.077 196.733 42.989C196.645 42.901 196.436 42.824 196.106 42.758L194.951 42.494V41.9L202.871 40.91H203.498V55.892H205.412C207.15 55.892 208.36 55.518 209.042 54.77C209.724 54 210.065 52.922 210.065 51.536ZM227.952 56.552C227.974 58.994 228.359 60.853 229.107 62.129C229.877 63.405 231.307 64.043 233.397 64.043C234.431 64.043 235.344 63.889 236.136 63.581C236.95 63.273 237.786 62.833 238.644 62.261L239.073 62.888C237.027 64.56 234.321 65.396 230.955 65.396C227.919 65.396 225.521 64.67 223.761 63.218C222.023 61.744 221.154 59.599 221.154 56.783C221.154 54.121 222.045 52.086 223.827 50.678C225.609 49.27 228.106 48.566 231.318 48.566C233.144 48.566 234.684 48.852 235.938 49.424C237.192 49.996 238.116 50.766 238.71 51.734C239.326 52.68 239.634 53.736 239.634 54.902C239.634 55.496 239.579 56.046 239.469 56.552H227.952ZM231.12 49.358C229.91 49.358 229.085 49.864 228.645 50.876C228.205 51.888 227.974 53.494 227.952 55.694H233.496V53.219C233.496 51.877 233.331 50.898 233.001 50.282C232.693 49.666 232.066 49.358 231.12 49.358ZM263.962 63.416C263.962 63.658 264.006 63.823 264.094 63.911C264.204 63.999 264.424 64.076 264.754 64.142L265.909 64.406V65H259.045C258.451 65 258.022 64.846 257.758 64.538C257.494 64.23 257.362 63.768 257.362 63.152V53.12C257.362 52.13 257.197 51.426 256.867 51.008C256.559 50.59 256.031 50.381 255.283 50.381C253.963 50.381 252.61 50.931 251.224 52.031V63.416C251.224 63.658 251.268 63.834 251.356 63.944C251.466 64.032 251.675 64.109 251.983 64.175L253.105 64.406V65H242.677V64.406L243.832 64.142C244.162 64.076 244.371 63.999 244.459 63.911C244.569 63.823 244.624 63.658 244.624 63.416V50.942C244.624 50.7 244.569 50.535 244.459 50.447C244.371 50.359 244.162 50.282 243.832 50.216L242.677 49.952V49.358L250.597 48.368H251.158V51.041C251.994 50.359 253.017 49.776 254.227 49.292C255.437 48.808 256.779 48.566 258.253 48.566C260.299 48.566 261.762 48.995 262.642 49.853C263.522 50.711 263.962 51.998 263.962 53.714V63.416ZM268.879 42.725C269.121 42.351 269.506 42.065 270.034 41.867C270.584 41.669 271.233 41.57 271.981 41.57C272.729 41.57 273.367 41.669 273.895 41.867C274.445 42.065 274.841 42.351 275.083 42.725L272.509 57.707H271.453L268.879 42.725ZM271.981 65.264C271.211 65.264 270.551 65 270.001 64.472C269.473 63.944 269.209 63.306 269.209 62.558C269.209 61.81 269.473 61.172 270.001 60.644C270.551 60.116 271.211 59.852 271.981 59.852C272.751 59.852 273.4 60.116 273.928 60.644C274.478 61.172 274.753 61.81 274.753 62.558C274.753 63.306 274.478 63.944 273.928 64.472C273.4 65 272.751 65.264 271.981 65.264Z" fill="black"/>
</svg>
