<svg width="460" height="148" viewBox="0 0 460 148" fill="none" xmlns="http://www.w3.org/2000/svg">
<path d="M25.839 24.363L18.975 7.302L12.705 24.363H11.649L2.871 2.484C2.761 2.198 2.64 2.011 2.508 1.923C2.398 1.813 2.211 1.736 1.947 1.692L0.726 1.56V0.899998H11.55V1.56L10.263 1.692C9.955 1.736 9.801 1.912 9.801 2.22C9.801 2.286 9.823 2.407 9.867 2.583L14.883 15.651L18.414 5.883L17.061 2.484C16.951 2.198 16.83 2.011 16.698 1.923C16.588 1.813 16.401 1.736 16.137 1.692L14.982 1.56V0.899998H25.806V1.56L24.453 1.692C24.145 1.736 23.991 1.912 23.991 2.22C23.991 2.286 24.013 2.407 24.057 2.583L29.073 15.651L33.858 2.451C33.924 2.275 33.957 2.154 33.957 2.088C33.957 1.846 33.792 1.714 33.462 1.692L32.076 1.56V0.899998H37.092V1.56L35.871 1.692C35.607 1.714 35.42 1.78 35.31 1.89C35.2 2 35.079 2.198 34.947 2.484L26.895 24.363H25.839ZM46.942 15.552C46.964 17.994 47.349 19.853 48.097 21.129C48.867 22.405 50.297 23.043 52.387 23.043C53.421 23.043 54.334 22.889 55.126 22.581C55.94 22.273 56.776 21.833 57.634 21.261L58.063 21.888C56.017 23.56 53.311 24.396 49.945 24.396C46.909 24.396 44.511 23.67 42.751 22.218C41.013 20.744 40.144 18.599 40.144 15.783C40.144 13.121 41.035 11.086 42.817 9.678C44.599 8.27 47.096 7.566 50.308 7.566C52.134 7.566 53.674 7.852 54.928 8.424C56.182 8.996 57.106 9.766 57.7 10.734C58.316 11.68 58.624 12.736 58.624 13.902C58.624 14.496 58.569 15.046 58.459 15.552H46.942ZM50.11 8.358C48.9 8.358 48.075 8.864 47.635 9.876C47.195 10.888 46.964 12.494 46.942 14.694H52.486V12.219C52.486 10.877 52.321 9.898 51.991 9.282C51.683 8.666 51.056 8.358 50.11 8.358ZM83.448 7.566C86.198 7.566 88.453 8.006 90.213 8.886L89.817 13.209H89.19C88.728 11.581 88.112 10.382 87.342 9.612C86.594 8.82 85.494 8.424 84.042 8.424C82.436 8.424 81.292 8.985 80.61 10.107C79.95 11.229 79.62 12.89 79.62 15.09C79.62 16.916 79.763 18.39 80.049 19.512C80.335 20.634 80.852 21.492 81.6 22.086C82.348 22.658 83.404 22.944 84.768 22.944C85.802 22.944 86.748 22.801 87.606 22.515C88.464 22.207 89.311 21.767 90.147 21.195L90.576 21.822C89.542 22.614 88.376 23.241 87.078 23.703C85.802 24.165 84.306 24.396 82.59 24.396C79.488 24.396 77.068 23.681 75.33 22.251C73.614 20.821 72.756 18.665 72.756 15.783C72.756 13.055 73.658 11.009 75.462 9.645C77.266 8.259 79.928 7.566 83.448 7.566ZM102.018 10.602C103.932 8.644 105.879 7.665 107.859 7.665C108.585 7.665 109.157 7.753 109.575 7.929L109.08 13.077H108.849L102.084 11.592V22.416C102.084 22.658 102.128 22.834 102.216 22.944C102.326 23.032 102.535 23.109 102.843 23.175L103.965 23.406V24H93.5375V23.406L94.6925 23.142C95.0225 23.076 95.2315 22.999 95.3195 22.911C95.4295 22.823 95.4845 22.658 95.4845 22.416V9.942C95.4845 9.7 95.4295 9.535 95.3195 9.447C95.2315 9.359 95.0225 9.282 94.6925 9.216L93.5375 8.952V8.358L101.457 7.368H102.018V10.602ZM119.675 15.552C119.697 17.994 120.082 19.853 120.83 21.129C121.6 22.405 123.03 23.043 125.12 23.043C126.154 23.043 127.067 22.889 127.859 22.581C128.673 22.273 129.509 21.833 130.367 21.261L130.796 21.888C128.75 23.56 126.044 24.396 122.678 24.396C119.642 24.396 117.244 23.67 115.484 22.218C113.746 20.744 112.877 18.599 112.877 15.783C112.877 13.121 113.768 11.086 115.55 9.678C117.332 8.27 119.829 7.566 123.041 7.566C124.867 7.566 126.407 7.852 127.661 8.424C128.915 8.996 129.839 9.766 130.433 10.734C131.049 11.68 131.357 12.736 131.357 13.902C131.357 14.496 131.302 15.046 131.192 15.552H119.675ZM122.843 8.358C121.633 8.358 120.808 8.864 120.368 9.876C119.928 10.888 119.697 12.494 119.675 14.694H125.219V12.219C125.219 10.877 125.054 9.898 124.724 9.282C124.416 8.666 123.789 8.358 122.843 8.358ZM147.401 24C146.785 24 146.345 23.879 146.081 23.637C145.839 23.373 145.718 22.944 145.718 22.35V22.185C144.244 23.615 142.143 24.33 139.415 24.33C137.985 24.33 136.863 24.011 136.049 23.373C135.257 22.713 134.861 21.701 134.861 20.337C134.861 18.973 135.257 17.906 136.049 17.136C136.863 16.366 138.04 15.816 139.58 15.486C141.12 15.156 143.166 14.958 145.718 14.892V12.483C145.718 11.251 145.476 10.371 144.992 9.843C144.508 9.293 143.661 9.018 142.451 9.018C141.439 9.018 140.493 9.161 139.613 9.447C138.755 9.711 137.875 10.118 136.973 10.668L136.544 10.041C137.6 9.293 138.865 8.699 140.339 8.259C141.835 7.797 143.507 7.566 145.355 7.566C147.841 7.566 149.612 8.061 150.668 9.051C151.724 10.019 152.252 11.427 152.252 13.275V22.416C152.252 22.658 152.296 22.823 152.384 22.911C152.494 22.999 152.714 23.076 153.044 23.142L154.199 23.406V24H147.401ZM143.111 22.251C144.057 22.251 144.926 21.877 145.718 21.129V15.783C144.486 15.871 143.551 16.069 142.913 16.377C142.275 16.663 141.835 17.081 141.593 17.631C141.373 18.181 141.263 18.929 141.263 19.875C141.263 20.711 141.406 21.316 141.692 21.69C142 22.064 142.473 22.251 143.111 22.251ZM156.231 8.82V7.962C156.913 7.962 157.419 7.907 157.749 7.797C158.079 7.687 158.409 7.489 158.739 7.203L164.613 1.923H164.91V7.962H169.167V8.82H164.91V19.908C164.91 20.964 165.031 21.712 165.273 22.152C165.537 22.57 165.977 22.779 166.593 22.779C167.077 22.779 167.506 22.68 167.88 22.482C168.254 22.284 168.661 21.943 169.101 21.459L169.629 22.086C168.243 23.626 166.197 24.396 163.491 24.396C161.665 24.396 160.356 24.011 159.564 23.241C158.772 22.471 158.376 21.272 158.376 19.644V8.82H156.231ZM179.34 15.552C179.362 17.994 179.747 19.853 180.495 21.129C181.265 22.405 182.695 23.043 184.785 23.043C185.819 23.043 186.732 22.889 187.524 22.581C188.338 22.273 189.174 21.833 190.032 21.261L190.461 21.888C188.415 23.56 185.709 24.396 182.343 24.396C179.307 24.396 176.909 23.67 175.149 22.218C173.411 20.744 172.542 18.599 172.542 15.783C172.542 13.121 173.433 11.086 175.215 9.678C176.997 8.27 179.494 7.566 182.706 7.566C184.532 7.566 186.072 7.852 187.326 8.424C188.58 8.996 189.504 9.766 190.098 10.734C190.714 11.68 191.022 12.736 191.022 13.902C191.022 14.496 190.967 15.046 190.857 15.552H179.34ZM182.508 8.358C181.298 8.358 180.473 8.864 180.033 9.876C179.593 10.888 179.362 12.494 179.34 14.694H184.884V12.219C184.884 10.877 184.719 9.898 184.389 9.282C184.081 8.666 183.454 8.358 182.508 8.358ZM2.871 43.55C2.871 43.308 2.816 43.143 2.706 43.055C2.618 42.967 2.409 42.89 2.079 42.824L0.858 42.56V41.9H9.999L20.625 55.298V43.517C20.625 43.275 20.57 43.121 20.46 43.055C20.372 42.967 20.174 42.89 19.866 42.824L18.678 42.56V41.9H23.694V42.56L22.473 42.824C22.143 42.89 21.923 42.967 21.813 43.055C21.725 43.143 21.681 43.308 21.681 43.55V65H20.493L3.927 44.045V63.383C3.927 63.625 3.971 63.79 4.059 63.878C4.169 63.944 4.378 64.01 4.686 64.076L5.874 64.34V65H0.858V64.34L2.079 64.076C2.409 64.01 2.618 63.933 2.706 63.845C2.816 63.757 2.871 63.592 2.871 63.35V43.55ZM33.6646 56.552C33.6866 58.994 34.0716 60.853 34.8196 62.129C35.5896 63.405 37.0196 64.043 39.1096 64.043C40.1436 64.043 41.0566 63.889 41.8486 63.581C42.6626 63.273 43.4986 62.833 44.3566 62.261L44.7856 62.888C42.7396 64.56 40.0336 65.396 36.6676 65.396C33.6316 65.396 31.2336 64.67 29.4736 63.218C27.7356 61.744 26.8666 59.599 26.8666 56.783C26.8666 54.121 27.7576 52.086 29.5396 50.678C31.3216 49.27 33.8186 48.566 37.0306 48.566C38.8566 48.566 40.3966 48.852 41.6506 49.424C42.9046 49.996 43.8286 50.766 44.4226 51.734C45.0386 52.68 45.3466 53.736 45.3466 54.902C45.3466 55.496 45.2916 56.046 45.1816 56.552H33.6646ZM36.8326 49.358C35.6226 49.358 34.7976 49.864 34.3576 50.876C33.9176 51.888 33.6866 53.494 33.6646 55.694H39.2086V53.219C39.2086 51.877 39.0436 50.898 38.7136 50.282C38.4056 49.666 37.7786 49.358 36.8326 49.358ZM68.5193 49.655C68.0133 49.765 67.7603 49.974 67.7603 50.282C67.7603 50.414 67.8153 50.59 67.9253 50.81L71.7533 58.499L75.6473 50.117C75.6693 50.073 75.6803 50.007 75.6803 49.919C75.6803 49.809 75.6253 49.732 75.5153 49.688C75.4053 49.644 75.2403 49.6 75.0203 49.556L74.1623 49.457V48.962H77.9573V49.457L77.0993 49.589C76.8353 49.633 76.6483 49.688 76.5383 49.754C76.4283 49.82 76.3183 49.974 76.2083 50.216L69.5093 65.594H68.9153L63.0743 54.473L58.2233 65.594H57.6293L49.6433 50.348C49.5333 50.15 49.4013 50.007 49.2473 49.919C49.1153 49.831 48.9393 49.765 48.7193 49.721L47.7293 49.457V48.962H57.8273V49.457L57.2333 49.589C56.7273 49.699 56.4743 49.93 56.4743 50.282C56.4743 50.414 56.5293 50.59 56.6393 50.81L60.4673 58.499L62.5793 53.549L60.9293 50.348C60.8193 50.128 60.6983 49.974 60.5663 49.886C60.4563 49.776 60.3133 49.699 60.1373 49.655L59.3453 49.457V48.962H69.3773V49.457L68.5193 49.655ZM114.814 65.363L107.95 48.302L101.68 65.363H100.624L91.846 43.484C91.736 43.198 91.615 43.011 91.483 42.923C91.373 42.813 91.186 42.736 90.922 42.692L89.701 42.56V41.9H100.525V42.56L99.238 42.692C98.93 42.736 98.776 42.912 98.776 43.22C98.776 43.286 98.798 43.407 98.842 43.583L103.858 56.651L107.389 46.883L106.036 43.484C105.926 43.198 105.805 43.011 105.673 42.923C105.563 42.813 105.376 42.736 105.112 42.692L103.957 42.56V41.9H114.781V42.56L113.428 42.692C113.12 42.736 112.966 42.912 112.966 43.22C112.966 43.286 112.988 43.407 113.032 43.583L118.048 56.651L122.833 43.451C122.899 43.275 122.932 43.154 122.932 43.088C122.932 42.846 122.767 42.714 122.437 42.692L121.051 42.56V41.9H126.067V42.56L124.846 42.692C124.582 42.714 124.395 42.78 124.285 42.89C124.175 43 124.054 43.198 123.922 43.484L115.87 65.363H114.814ZM141.263 65C140.647 65 140.207 64.879 139.943 64.637C139.701 64.373 139.58 63.944 139.58 63.35V63.185C138.106 64.615 136.005 65.33 133.277 65.33C131.847 65.33 130.725 65.011 129.911 64.373C129.119 63.713 128.723 62.701 128.723 61.337C128.723 59.973 129.119 58.906 129.911 58.136C130.725 57.366 131.902 56.816 133.442 56.486C134.982 56.156 137.028 55.958 139.58 55.892V53.483C139.58 52.251 139.338 51.371 138.854 50.843C138.37 50.293 137.523 50.018 136.313 50.018C135.301 50.018 134.355 50.161 133.475 50.447C132.617 50.711 131.737 51.118 130.835 51.668L130.406 51.041C131.462 50.293 132.727 49.699 134.201 49.259C135.697 48.797 137.369 48.566 139.217 48.566C141.703 48.566 143.474 49.061 144.53 50.051C145.586 51.019 146.114 52.427 146.114 54.275V63.416C146.114 63.658 146.158 63.823 146.246 63.911C146.356 63.999 146.576 64.076 146.906 64.142L148.061 64.406V65H141.263ZM136.973 63.251C137.919 63.251 138.788 62.877 139.58 62.129V56.783C138.348 56.871 137.413 57.069 136.775 57.377C136.137 57.663 135.697 58.081 135.455 58.631C135.235 59.181 135.125 59.929 135.125 60.875C135.125 61.711 135.268 62.316 135.554 62.69C135.862 63.064 136.335 63.251 136.973 63.251ZM159.002 49.655C158.496 49.765 158.243 49.974 158.243 50.282C158.243 50.414 158.298 50.59 158.408 50.81L162.236 58.499L165.833 50.117C165.899 49.985 165.932 49.875 165.932 49.787C165.932 49.655 165.789 49.578 165.503 49.556L164.645 49.457V48.962H168.44V49.457L167.582 49.589C167.318 49.633 167.131 49.688 167.021 49.754C166.911 49.82 166.801 49.974 166.691 50.216L160.256 65C159.376 67.046 158.65 68.542 158.078 69.488C157.528 70.456 156.901 71.193 156.197 71.699C155.515 72.227 154.591 72.634 153.425 72.92L151.643 67.904C153.139 67.838 154.558 67.585 155.9 67.145C157.242 66.727 158.397 66.188 159.365 65.528L151.412 50.348C151.302 50.15 151.17 50.007 151.016 49.919C150.884 49.831 150.708 49.765 150.488 49.721L149.498 49.457V48.962H159.86V49.457L159.002 49.655ZM180.191 49.82V48.962C180.873 48.962 181.379 48.907 181.709 48.797C182.039 48.687 182.369 48.489 182.699 48.203L188.573 42.923H188.87V48.962H193.127V49.82H188.87V60.908C188.87 61.964 188.991 62.712 189.233 63.152C189.497 63.57 189.937 63.779 190.553 63.779C191.037 63.779 191.466 63.68 191.84 63.482C192.214 63.284 192.621 62.943 193.061 62.459L193.589 63.086C192.203 64.626 190.157 65.396 187.451 65.396C185.625 65.396 184.316 65.011 183.524 64.241C182.732 63.471 182.336 62.272 182.336 60.644V49.82H180.191ZM217.094 56.981C217.094 59.819 216.203 61.931 214.421 63.317C212.661 64.703 210.12 65.396 206.798 65.396C203.476 65.396 200.924 64.703 199.142 63.317C197.382 61.931 196.502 59.819 196.502 56.981C196.502 54.143 197.382 52.031 199.142 50.645C200.924 49.259 203.476 48.566 206.798 48.566C210.12 48.566 212.661 49.259 214.421 50.645C216.203 52.031 217.094 54.143 217.094 56.981ZM203.366 56.981C203.366 58.939 203.454 60.446 203.63 61.502C203.828 62.558 204.169 63.328 204.653 63.812C205.137 64.296 205.852 64.538 206.798 64.538C207.744 64.538 208.459 64.296 208.943 63.812C209.427 63.328 209.757 62.558 209.933 61.502C210.131 60.446 210.23 58.939 210.23 56.981C210.23 55.023 210.131 53.516 209.933 52.46C209.757 51.404 209.427 50.634 208.943 50.15C208.459 49.666 207.744 49.424 206.798 49.424C205.852 49.424 205.137 49.666 204.653 50.15C204.169 50.634 203.828 51.404 203.63 52.46C203.454 53.516 203.366 55.023 203.366 56.981ZM10.395 105.505C11.825 105.505 12.936 105.23 13.728 104.68C14.52 104.13 14.916 103.338 14.916 102.304C14.916 101.468 14.729 100.775 14.355 100.225C14.003 99.675 13.453 99.169 12.705 98.707C11.957 98.245 10.857 97.695 9.405 97.057C7.557 96.243 6.127 95.528 5.115 94.912C4.103 94.274 3.3 93.482 2.706 92.536C2.134 91.568 1.848 90.347 1.848 88.873C1.848 86.761 2.596 85.177 4.092 84.121C5.588 83.043 7.964 82.504 11.22 82.504C12.672 82.504 14.069 82.647 15.411 82.933C16.775 83.219 17.919 83.582 18.843 84.022L18.051 89.071H17.16C16.742 87.729 16.302 86.662 15.84 85.87C15.4 85.078 14.795 84.473 14.025 84.055C13.255 83.615 12.232 83.395 10.956 83.395C8.052 83.395 6.6 84.341 6.6 86.233C6.6 87.003 6.776 87.641 7.128 88.147C7.48 88.653 8.008 89.115 8.712 89.533C9.416 89.929 10.582 90.523 12.21 91.315L12.87 91.612C14.916 92.602 16.423 93.405 17.391 94.021C18.381 94.637 19.162 95.407 19.734 96.331C20.306 97.233 20.592 98.41 20.592 99.862C20.592 102.018 19.778 103.646 18.15 104.746C16.544 105.846 14.014 106.396 10.56 106.396C9.174 106.396 7.634 106.242 5.94 105.934C4.268 105.626 2.97 105.252 2.046 104.812L2.937 99.004H3.795C4.081 100.72 4.51 102.051 5.082 102.997C5.654 103.943 6.369 104.603 7.227 104.977C8.085 105.329 9.141 105.505 10.395 105.505ZM32.6612 90.655C32.1552 90.765 31.9022 90.974 31.9022 91.282C31.9022 91.414 31.9572 91.59 32.0672 91.81L35.8952 99.499L39.4922 91.117C39.5582 90.985 39.5912 90.875 39.5912 90.787C39.5912 90.655 39.4482 90.578 39.1622 90.556L38.3042 90.457V89.962H42.0992V90.457L41.2412 90.589C40.9772 90.633 40.7902 90.688 40.6802 90.754C40.5702 90.82 40.4602 90.974 40.3502 91.216L33.9152 106C33.0352 108.046 32.3092 109.542 31.7372 110.488C31.1872 111.456 30.5602 112.193 29.8562 112.699C29.1742 113.227 28.2502 113.634 27.0842 113.92L25.3022 108.904C26.7982 108.838 28.2172 108.585 29.5592 108.145C30.9012 107.727 32.0562 107.188 33.0242 106.528L25.0712 91.348C24.9612 91.15 24.8292 91.007 24.6752 90.919C24.5432 90.831 24.3672 90.765 24.1472 90.721L23.1572 90.457V89.962H33.5192V90.457L32.6612 90.655ZM64.9693 104.416C64.9693 104.658 65.0133 104.823 65.1013 104.911C65.2113 104.999 65.4313 105.076 65.7613 105.142L66.9163 105.406V106H60.0523C59.4583 106 59.0293 105.846 58.7653 105.538C58.5013 105.23 58.3693 104.768 58.3693 104.152V94.12C58.3693 93.13 58.2043 92.426 57.8743 92.008C57.5663 91.59 57.0383 91.381 56.2903 91.381C54.9703 91.381 53.6173 91.931 52.2313 93.031V104.416C52.2313 104.658 52.2753 104.834 52.3633 104.944C52.4733 105.032 52.6823 105.109 52.9903 105.175L54.1123 105.406V106H43.6843V105.406L44.8393 105.142C45.1693 105.076 45.3783 104.999 45.4663 104.911C45.5763 104.823 45.6313 104.658 45.6313 104.416V91.942C45.6313 91.7 45.5763 91.535 45.4663 91.447C45.3783 91.359 45.1693 91.282 44.8393 91.216L43.6843 90.952V90.358L51.6043 89.368H52.1653V92.041C53.0013 91.359 54.0243 90.776 55.2343 90.292C56.4443 89.808 57.7863 89.566 59.2603 89.566C61.3063 89.566 62.7693 89.995 63.6493 90.853C64.5293 91.711 64.9693 92.998 64.9693 94.714V104.416ZM80.6443 89.566C83.3943 89.566 85.6493 90.006 87.4093 90.886L87.0133 95.209H86.3863C85.9243 93.581 85.3083 92.382 84.5383 91.612C83.7903 90.82 82.6903 90.424 81.2383 90.424C79.6323 90.424 78.4883 90.985 77.8063 92.107C77.1463 93.229 76.8163 94.89 76.8163 97.09C76.8163 98.916 76.9593 100.39 77.2453 101.512C77.5313 102.634 78.0483 103.492 78.7963 104.086C79.5443 104.658 80.6003 104.944 81.9643 104.944C82.9983 104.944 83.9443 104.801 84.8023 104.515C85.6603 104.207 86.5073 103.767 87.3433 103.195L87.7723 103.822C86.7383 104.614 85.5723 105.241 84.2743 105.703C82.9983 106.165 81.5023 106.396 79.7863 106.396C76.6843 106.396 74.2643 105.681 72.5263 104.251C70.8103 102.821 69.9523 100.665 69.9523 97.783C69.9523 95.055 70.8543 93.009 72.6583 91.645C74.4623 90.259 77.1243 89.566 80.6443 89.566ZM99.2148 92.602C101.129 90.644 103.076 89.665 105.056 89.665C105.782 89.665 106.354 89.753 106.772 89.929L106.277 95.077H106.046L99.2808 93.592V104.416C99.2808 104.658 99.3248 104.834 99.4128 104.944C99.5228 105.032 99.7318 105.109 100.04 105.175L101.162 105.406V106H90.7338V105.406L91.8888 105.142C92.2188 105.076 92.4278 104.999 92.5158 104.911C92.6258 104.823 92.6808 104.658 92.6808 104.416V91.942C92.6808 91.7 92.6258 91.535 92.5158 91.447C92.4278 91.359 92.2188 91.282 91.8888 91.216L90.7338 90.952V90.358L98.6538 89.368H99.2148V92.602ZM130.665 97.981C130.665 100.819 129.774 102.931 127.992 104.317C126.232 105.703 123.691 106.396 120.369 106.396C117.047 106.396 114.495 105.703 112.713 104.317C110.953 102.931 110.073 100.819 110.073 97.981C110.073 95.143 110.953 93.031 112.713 91.645C114.495 90.259 117.047 89.566 120.369 89.566C123.691 89.566 126.232 90.259 127.992 91.645C129.774 93.031 130.665 95.143 130.665 97.981ZM116.937 97.981C116.937 99.939 117.025 101.446 117.201 102.502C117.399 103.558 117.74 104.328 118.224 104.812C118.708 105.296 119.423 105.538 120.369 105.538C121.315 105.538 122.03 105.296 122.514 104.812C122.998 104.328 123.328 103.558 123.504 102.502C123.702 101.446 123.801 99.939 123.801 97.981C123.801 96.023 123.702 94.516 123.504 93.46C123.328 92.404 122.998 91.634 122.514 91.15C122.03 90.666 121.315 90.424 120.369 90.424C119.423 90.424 118.708 90.666 118.224 91.15C117.74 91.634 117.399 92.404 117.201 93.46C117.025 94.516 116.937 96.023 116.937 97.981ZM155.04 104.416C155.04 104.658 155.084 104.823 155.172 104.911C155.282 104.999 155.502 105.076 155.832 105.142L156.987 105.406V106H150.123C149.529 106 149.1 105.846 148.836 105.538C148.572 105.23 148.44 104.768 148.44 104.152V94.12C148.44 93.13 148.275 92.426 147.945 92.008C147.637 91.59 147.109 91.381 146.361 91.381C145.041 91.381 143.688 91.931 142.302 93.031V104.416C142.302 104.658 142.346 104.834 142.434 104.944C142.544 105.032 142.753 105.109 143.061 105.175L144.183 105.406V106H133.755V105.406L134.91 105.142C135.24 105.076 135.449 104.999 135.537 104.911C135.647 104.823 135.702 104.658 135.702 104.416V91.942C135.702 91.7 135.647 91.535 135.537 91.447C135.449 91.359 135.24 91.282 134.91 91.216L133.755 90.952V90.358L141.675 89.368H142.236V92.041C143.072 91.359 144.095 90.776 145.305 90.292C146.515 89.808 147.857 89.566 149.331 89.566C151.377 89.566 152.84 89.995 153.72 90.853C154.6 91.711 155.04 92.998 155.04 94.714V104.416ZM164.478 87.454C163.444 87.454 162.619 87.223 162.003 86.761C161.387 86.277 161.079 85.584 161.079 84.682C161.079 83.78 161.387 83.098 162.003 82.636C162.619 82.152 163.444 81.91 164.478 81.91C165.512 81.91 166.337 82.152 166.953 82.636C167.569 83.098 167.877 83.78 167.877 84.682C167.877 85.584 167.569 86.277 166.953 86.761C166.337 87.223 165.512 87.454 164.478 87.454ZM159.231 105.406L160.386 105.142C160.716 105.076 160.925 104.999 161.013 104.911C161.123 104.823 161.178 104.658 161.178 104.416V91.942C161.178 91.7 161.123 91.535 161.013 91.447C160.925 91.359 160.716 91.282 160.386 91.216L159.231 90.952V90.358L167.151 89.368H167.778V104.416C167.778 104.658 167.822 104.823 167.91 104.911C168.02 104.999 168.24 105.076 168.57 105.142L169.725 105.406V106H159.231V105.406ZM183.49 105.175C184.502 105.175 185.272 105.065 185.8 104.845C186.35 104.625 186.779 104.273 187.087 103.789C187.395 103.283 187.703 102.535 188.011 101.545H188.671V106H172.303V105.34L181.906 90.787H178.276C177.264 90.787 176.483 90.897 175.933 91.117C175.405 91.315 174.987 91.656 174.679 92.14C174.371 92.602 174.063 93.317 173.755 94.285H173.095V89.962H188.605V90.622L179.002 105.175H183.49ZM198.982 97.552C199.004 99.994 199.389 101.853 200.137 103.129C200.907 104.405 202.337 105.043 204.427 105.043C205.461 105.043 206.374 104.889 207.166 104.581C207.98 104.273 208.816 103.833 209.674 103.261L210.103 103.888C208.057 105.56 205.351 106.396 201.985 106.396C198.949 106.396 196.551 105.67 194.791 104.218C193.053 102.744 192.184 100.599 192.184 97.783C192.184 95.121 193.075 93.086 194.857 91.678C196.639 90.27 199.136 89.566 202.348 89.566C204.174 89.566 205.714 89.852 206.968 90.424C208.222 90.996 209.146 91.766 209.74 92.734C210.356 93.68 210.664 94.736 210.664 95.902C210.664 96.496 210.609 97.046 210.499 97.552H198.982ZM202.15 90.358C200.94 90.358 200.115 90.864 199.675 91.876C199.235 92.888 199.004 94.494 198.982 96.694H204.526V94.219C204.526 92.877 204.361 91.898 204.031 91.282C203.723 90.666 203.096 90.358 202.15 90.358ZM232.782 90.655C232.276 90.765 232.023 90.974 232.023 91.282C232.023 91.414 232.078 91.59 232.188 91.81L236.016 99.499L239.613 91.117C239.679 90.985 239.712 90.875 239.712 90.787C239.712 90.655 239.569 90.578 239.283 90.556L238.425 90.457V89.962H242.22V90.457L241.362 90.589C241.098 90.633 240.911 90.688 240.801 90.754C240.691 90.82 240.581 90.974 240.471 91.216L234.036 106C233.156 108.046 232.43 109.542 231.858 110.488C231.308 111.456 230.681 112.193 229.977 112.699C229.295 113.227 228.371 113.634 227.205 113.92L225.423 108.904C226.919 108.838 228.338 108.585 229.68 108.145C231.022 107.727 232.177 107.188 233.145 106.528L225.192 91.348C225.082 91.15 224.95 91.007 224.796 90.919C224.664 90.831 224.488 90.765 224.268 90.721L223.278 90.457V89.962H233.64V90.457L232.782 90.655ZM265.255 97.981C265.255 100.819 264.364 102.931 262.582 104.317C260.822 105.703 258.281 106.396 254.959 106.396C251.637 106.396 249.085 105.703 247.303 104.317C245.543 102.931 244.663 100.819 244.663 97.981C244.663 95.143 245.543 93.031 247.303 91.645C249.085 90.259 251.637 89.566 254.959 89.566C258.281 89.566 260.822 90.259 262.582 91.645C264.364 93.031 265.255 95.143 265.255 97.981ZM251.527 97.981C251.527 99.939 251.615 101.446 251.791 102.502C251.989 103.558 252.33 104.328 252.814 104.812C253.298 105.296 254.013 105.538 254.959 105.538C255.905 105.538 256.62 105.296 257.104 104.812C257.588 104.328 257.918 103.558 258.094 102.502C258.292 101.446 258.391 99.939 258.391 97.981C258.391 96.023 258.292 94.516 258.094 93.46C257.918 92.404 257.588 91.634 257.104 91.15C256.62 90.666 255.905 90.424 254.959 90.424C254.013 90.424 253.298 90.666 252.814 91.15C252.33 91.634 251.989 92.404 251.791 93.46C251.615 94.516 251.527 96.023 251.527 97.981ZM282.832 91.942C282.832 91.7 282.777 91.535 282.667 91.447C282.579 91.359 282.37 91.282 282.04 91.216L280.885 90.952V90.358L288.871 89.368H289.432V104.416C289.432 104.658 289.476 104.823 289.564 104.911C289.674 104.999 289.894 105.076 290.224 105.142L291.379 105.406V106H284.68C284.042 106 283.58 105.868 283.294 105.604C283.03 105.318 282.898 104.878 282.898 104.284V103.921C282.106 104.603 281.105 105.186 279.895 105.67C278.685 106.154 277.343 106.396 275.869 106.396C273.823 106.396 272.36 105.967 271.48 105.109C270.6 104.251 270.16 102.964 270.16 101.248V91.942C270.16 91.7 270.105 91.535 269.995 91.447C269.907 91.359 269.698 91.282 269.368 91.216L268.213 90.952V90.358L276.199 89.368H276.76V101.842C276.76 102.832 276.914 103.536 277.222 103.954C277.552 104.372 278.091 104.581 278.839 104.581C280.159 104.581 281.49 104.031 282.832 102.931V91.942ZM302.107 92.602C304.021 90.644 305.968 89.665 307.948 89.665C308.674 89.665 309.246 89.753 309.664 89.929L309.169 95.077H308.938L302.173 93.592V104.416C302.173 104.658 302.217 104.834 302.305 104.944C302.415 105.032 302.624 105.109 302.932 105.175L304.054 105.406V106H293.626V105.406L294.781 105.142C295.111 105.076 295.32 104.999 295.408 104.911C295.518 104.823 295.573 104.658 295.573 104.416V91.942C295.573 91.7 295.518 91.535 295.408 91.447C295.32 91.359 295.111 91.282 294.781 91.216L293.626 90.952V90.358L301.546 89.368H302.107V92.602ZM341.511 89.335C341.049 87.905 340.609 86.827 340.191 86.101C339.795 85.375 339.234 84.825 338.508 84.451C337.782 84.077 336.759 83.89 335.439 83.89H331.149V93.691H339.399V94.681H331.149V104.317C331.149 104.559 331.193 104.724 331.281 104.812C331.391 104.9 331.611 104.977 331.941 105.043L333.36 105.34V106H322.404V105.34L323.625 105.076C323.955 105.01 324.164 104.933 324.252 104.845C324.362 104.757 324.417 104.592 324.417 104.35V84.55C324.417 84.308 324.362 84.143 324.252 84.055C324.164 83.967 323.955 83.89 323.625 83.824L322.404 83.56V82.9H342.336V89.335H341.511ZM358.237 106C357.621 106 357.181 105.879 356.917 105.637C356.675 105.373 356.554 104.944 356.554 104.35V104.185C355.08 105.615 352.979 106.33 350.251 106.33C348.821 106.33 347.699 106.011 346.885 105.373C346.093 104.713 345.697 103.701 345.697 102.337C345.697 100.973 346.093 99.906 346.885 99.136C347.699 98.366 348.876 97.816 350.416 97.486C351.956 97.156 354.002 96.958 356.554 96.892V94.483C356.554 93.251 356.312 92.371 355.828 91.843C355.344 91.293 354.497 91.018 353.287 91.018C352.275 91.018 351.329 91.161 350.449 91.447C349.591 91.711 348.711 92.118 347.809 92.668L347.38 92.041C348.436 91.293 349.701 90.699 351.175 90.259C352.671 89.797 354.343 89.566 356.191 89.566C358.677 89.566 360.448 90.061 361.504 91.051C362.56 92.019 363.088 93.427 363.088 95.275V104.416C363.088 104.658 363.132 104.823 363.22 104.911C363.33 104.999 363.55 105.076 363.88 105.142L365.035 105.406V106H358.237ZM353.947 104.251C354.893 104.251 355.762 103.877 356.554 103.129V97.783C355.322 97.871 354.387 98.069 353.749 98.377C353.111 98.663 352.671 99.081 352.429 99.631C352.209 100.181 352.099 100.929 352.099 101.875C352.099 102.711 352.242 103.316 352.528 103.69C352.836 104.064 353.309 104.251 353.947 104.251ZM388.417 104.416C388.417 104.658 388.461 104.823 388.549 104.911C388.659 104.999 388.879 105.076 389.209 105.142L390.364 105.406V106H383.5C382.906 106 382.477 105.846 382.213 105.538C381.949 105.23 381.817 104.768 381.817 104.152V94.12C381.817 93.13 381.652 92.426 381.322 92.008C381.014 91.59 380.486 91.381 379.738 91.381C378.418 91.381 377.065 91.931 375.679 93.031V104.416C375.679 104.658 375.723 104.834 375.811 104.944C375.921 105.032 376.13 105.109 376.438 105.175L377.56 105.406V106H367.132V105.406L368.287 105.142C368.617 105.076 368.826 104.999 368.914 104.911C369.024 104.823 369.079 104.658 369.079 104.416V91.942C369.079 91.7 369.024 91.535 368.914 91.447C368.826 91.359 368.617 91.282 368.287 91.216L367.132 90.952V90.358L375.052 89.368H375.613V92.041C376.449 91.359 377.472 90.776 378.682 90.292C379.892 89.808 381.234 89.566 382.708 89.566C384.754 89.566 386.217 89.995 387.097 90.853C387.977 91.711 388.417 92.998 388.417 94.714V104.416ZM392.476 90.82V89.962C393.158 89.962 393.664 89.907 393.994 89.797C394.324 89.687 394.654 89.489 394.984 89.203L400.858 83.923H401.155V89.962H405.412V90.82H401.155V101.908C401.155 102.964 401.276 103.712 401.518 104.152C401.782 104.57 402.222 104.779 402.838 104.779C403.322 104.779 403.751 104.68 404.125 104.482C404.499 104.284 404.906 103.943 405.346 103.459L405.874 104.086C404.488 105.626 402.442 106.396 399.736 106.396C397.91 106.396 396.601 106.011 395.809 105.241C395.017 104.471 394.621 103.272 394.621 101.644V90.82H392.476ZM420.932 106C420.316 106 419.876 105.879 419.612 105.637C419.37 105.373 419.249 104.944 419.249 104.35V104.185C417.775 105.615 415.674 106.33 412.946 106.33C411.516 106.33 410.394 106.011 409.58 105.373C408.788 104.713 408.392 103.701 408.392 102.337C408.392 100.973 408.788 99.906 409.58 99.136C410.394 98.366 411.571 97.816 413.111 97.486C414.651 97.156 416.697 96.958 419.249 96.892V94.483C419.249 93.251 419.007 92.371 418.523 91.843C418.039 91.293 417.192 91.018 415.982 91.018C414.97 91.018 414.024 91.161 413.144 91.447C412.286 91.711 411.406 92.118 410.504 92.668L410.075 92.041C411.131 91.293 412.396 90.699 413.87 90.259C415.366 89.797 417.038 89.566 418.886 89.566C421.372 89.566 423.143 90.061 424.199 91.051C425.255 92.019 425.783 93.427 425.783 95.275V104.416C425.783 104.658 425.827 104.823 425.915 104.911C426.025 104.999 426.245 105.076 426.575 105.142L427.73 105.406V106H420.932ZM416.642 104.251C417.588 104.251 418.457 103.877 419.249 103.129V97.783C418.017 97.871 417.082 98.069 416.444 98.377C415.806 98.663 415.366 99.081 415.124 99.631C414.904 100.181 414.794 100.929 414.794 101.875C414.794 102.711 414.937 103.316 415.223 103.69C415.531 104.064 416.004 104.251 416.642 104.251ZM437.879 105.604C438.913 105.604 439.672 105.45 440.156 105.142C440.662 104.834 440.915 104.295 440.915 103.525C440.915 102.997 440.783 102.568 440.519 102.238C440.255 101.908 439.837 101.611 439.265 101.347C438.693 101.083 437.78 100.72 436.526 100.258C434.392 99.488 432.874 98.696 431.972 97.882C431.07 97.046 430.619 95.902 430.619 94.45C430.619 92.8 431.235 91.579 432.467 90.787C433.699 89.973 435.569 89.566 438.077 89.566C439.353 89.566 440.607 89.698 441.839 89.962C443.071 90.204 444.028 90.49 444.71 90.82L444.314 94.78H443.753C443.159 93.306 442.444 92.195 441.608 91.447C440.772 90.677 439.562 90.292 437.978 90.292C436.966 90.292 436.185 90.435 435.635 90.721C435.085 90.985 434.81 91.48 434.81 92.206C434.81 92.712 434.931 93.119 435.173 93.427C435.437 93.735 435.833 94.021 436.361 94.285C436.911 94.549 437.813 94.934 439.067 95.44C440.871 96.166 442.235 96.793 443.159 97.321C444.083 97.849 444.765 98.454 445.205 99.136C445.645 99.818 445.865 100.676 445.865 101.71C445.865 103.36 445.227 104.559 443.951 105.307C442.697 106.033 440.805 106.396 438.275 106.396C436.933 106.396 435.525 106.264 434.051 106C432.599 105.758 431.51 105.472 430.784 105.142L431.246 100.654H431.807C432.203 102.392 432.907 103.657 433.919 104.449C434.931 105.219 436.251 105.604 437.879 105.604ZM454.137 87.454C453.103 87.454 452.278 87.223 451.662 86.761C451.046 86.277 450.738 85.584 450.738 84.682C450.738 83.78 451.046 83.098 451.662 82.636C452.278 82.152 453.103 81.91 454.137 81.91C455.171 81.91 455.996 82.152 456.612 82.636C457.228 83.098 457.536 83.78 457.536 84.682C457.536 85.584 457.228 86.277 456.612 86.761C455.996 87.223 455.171 87.454 454.137 87.454ZM448.89 105.406L450.045 105.142C450.375 105.076 450.584 104.999 450.672 104.911C450.782 104.823 450.837 104.658 450.837 104.416V91.942C450.837 91.7 450.782 91.535 450.672 91.447C450.584 91.359 450.375 91.282 450.045 91.216L448.89 90.952V90.358L456.81 89.368H457.437V104.416C457.437 104.658 457.481 104.823 457.569 104.911C457.679 104.999 457.899 105.076 458.229 105.142L459.384 105.406V106H448.89V105.406ZM13.794 147C13.178 147 12.738 146.879 12.474 146.637C12.232 146.373 12.111 145.944 12.111 145.35V145.185C10.637 146.615 8.536 147.33 5.808 147.33C4.378 147.33 3.256 147.011 2.442 146.373C1.65 145.713 1.254 144.701 1.254 143.337C1.254 141.973 1.65 140.906 2.442 140.136C3.256 139.366 4.433 138.816 5.973 138.486C7.513 138.156 9.559 137.958 12.111 137.892V135.483C12.111 134.251 11.869 133.371 11.385 132.843C10.901 132.293 10.054 132.018 8.844 132.018C7.832 132.018 6.886 132.161 6.006 132.447C5.148 132.711 4.268 133.118 3.366 133.668L2.937 133.041C3.993 132.293 5.258 131.699 6.732 131.259C8.228 130.797 9.9 130.566 11.748 130.566C14.234 130.566 16.005 131.061 17.061 132.051C18.117 133.019 18.645 134.427 18.645 136.275V145.416C18.645 145.658 18.689 145.823 18.777 145.911C18.887 145.999 19.107 146.076 19.437 146.142L20.592 146.406V147H13.794ZM9.504 145.251C10.45 145.251 11.319 144.877 12.111 144.129V138.783C10.879 138.871 9.944 139.069 9.306 139.377C8.668 139.663 8.228 140.081 7.986 140.631C7.766 141.181 7.656 141.929 7.656 142.875C7.656 143.711 7.799 144.316 8.085 144.69C8.393 145.064 8.866 145.251 9.504 145.251ZM43.9743 145.416C43.9743 145.658 44.0183 145.823 44.1063 145.911C44.2163 145.999 44.4363 146.076 44.7663 146.142L45.9213 146.406V147H39.0573C38.4633 147 38.0343 146.846 37.7703 146.538C37.5063 146.23 37.3743 145.768 37.3743 145.152V135.12C37.3743 134.13 37.2093 133.426 36.8793 133.008C36.5713 132.59 36.0433 132.381 35.2953 132.381C33.9753 132.381 32.6223 132.931 31.2363 134.031V145.416C31.2363 145.658 31.2803 145.834 31.3683 145.944C31.4783 146.032 31.6873 146.109 31.9953 146.175L33.1173 146.406V147H22.6893V146.406L23.8443 146.142C24.1743 146.076 24.3833 145.999 24.4713 145.911C24.5813 145.823 24.6363 145.658 24.6363 145.416V132.942C24.6363 132.7 24.5813 132.535 24.4713 132.447C24.3833 132.359 24.1743 132.282 23.8443 132.216L22.6893 131.952V131.358L30.6093 130.368H31.1703V133.041C32.0063 132.359 33.0293 131.776 34.2393 131.292C35.4493 130.808 36.7913 130.566 38.2653 130.566C40.3113 130.566 41.7743 130.995 42.6543 131.853C43.5343 132.711 43.9743 133.998 43.9743 135.714V145.416ZM64.3353 147C63.7413 147 63.3123 146.846 63.0483 146.538C62.7843 146.23 62.6523 145.768 62.6523 145.152C61.2443 146.648 59.3303 147.396 56.9103 147.396C54.4903 147.396 52.5543 146.703 51.1023 145.317C49.6723 143.931 48.9573 141.764 48.9573 138.816C48.9573 135.978 49.6723 133.899 51.1023 132.579C52.5323 131.237 54.4683 130.566 56.9103 130.566C58.2303 130.566 59.3303 130.72 60.2103 131.028C61.1123 131.336 61.9043 131.732 62.5863 132.216V125.484C62.5863 125.242 62.5313 125.077 62.4213 124.989C62.3333 124.901 62.1243 124.824 61.7943 124.758L60.6393 124.494V123.9L68.5593 122.91H69.1863V145.416C69.1863 145.658 69.2303 145.823 69.3183 145.911C69.4283 145.999 69.6483 146.076 69.9783 146.142L71.1333 146.406V147H64.3353ZM58.8573 145.977C60.1553 145.977 61.3983 145.361 62.5863 144.129V133.206C61.5303 132.37 60.3423 131.952 59.0223 131.952C57.8123 131.952 56.9653 132.491 56.4813 133.569C55.9973 134.625 55.7553 136.374 55.7553 138.816C55.7553 140.554 55.8433 141.94 56.0193 142.974C56.2173 143.986 56.5363 144.745 56.9763 145.251C57.4383 145.735 58.0653 145.977 58.8573 145.977ZM102.785 130.335C102.323 128.905 101.883 127.827 101.465 127.101C101.069 126.375 100.508 125.825 99.7817 125.451C99.0557 125.077 98.0327 124.89 96.7127 124.89H92.4227V134.691H100.673V135.681H92.4227V145.317C92.4227 145.559 92.4667 145.724 92.5547 145.812C92.6647 145.9 92.8847 145.977 93.2147 146.043L94.6337 146.34V147H83.6777V146.34L84.8987 146.076C85.2287 146.01 85.4377 145.933 85.5257 145.845C85.6357 145.757 85.6907 145.592 85.6907 145.35V125.55C85.6907 125.308 85.6357 125.143 85.5257 125.055C85.4377 124.967 85.2287 124.89 84.8987 124.824L83.6777 124.56V123.9H103.61V130.335H102.785ZM119.51 147C118.894 147 118.454 146.879 118.19 146.637C117.948 146.373 117.827 145.944 117.827 145.35V145.185C116.353 146.615 114.252 147.33 111.524 147.33C110.094 147.33 108.972 147.011 108.158 146.373C107.366 145.713 106.97 144.701 106.97 143.337C106.97 141.973 107.366 140.906 108.158 140.136C108.972 139.366 110.149 138.816 111.689 138.486C113.229 138.156 115.275 137.958 117.827 137.892V135.483C117.827 134.251 117.585 133.371 117.101 132.843C116.617 132.293 115.77 132.018 114.56 132.018C113.548 132.018 112.602 132.161 111.722 132.447C110.864 132.711 109.984 133.118 109.082 133.668L108.653 133.041C109.709 132.293 110.974 131.699 112.448 131.259C113.944 130.797 115.616 130.566 117.464 130.566C119.95 130.566 121.721 131.061 122.777 132.051C123.833 133.019 124.361 134.427 124.361 136.275V145.416C124.361 145.658 124.405 145.823 124.493 145.911C124.603 145.999 124.823 146.076 125.153 146.142L126.308 146.406V147H119.51ZM115.22 145.251C116.166 145.251 117.035 144.877 117.827 144.129V138.783C116.595 138.871 115.66 139.069 115.022 139.377C114.384 139.663 113.944 140.081 113.702 140.631C113.482 141.181 113.372 141.929 113.372 142.875C113.372 143.711 113.515 144.316 113.801 144.69C114.109 145.064 114.582 145.251 115.22 145.251ZM149.69 145.416C149.69 145.658 149.734 145.823 149.822 145.911C149.932 145.999 150.152 146.076 150.482 146.142L151.637 146.406V147H144.773C144.179 147 143.75 146.846 143.486 146.538C143.222 146.23 143.09 145.768 143.09 145.152V135.12C143.09 134.13 142.925 133.426 142.595 133.008C142.287 132.59 141.759 132.381 141.011 132.381C139.691 132.381 138.338 132.931 136.952 134.031V145.416C136.952 145.658 136.996 145.834 137.084 145.944C137.194 146.032 137.403 146.109 137.711 146.175L138.833 146.406V147H128.405V146.406L129.56 146.142C129.89 146.076 130.099 145.999 130.187 145.911C130.297 145.823 130.352 145.658 130.352 145.416V132.942C130.352 132.7 130.297 132.535 130.187 132.447C130.099 132.359 129.89 132.282 129.56 132.216L128.405 131.952V131.358L136.325 130.368H136.886V133.041C137.722 132.359 138.745 131.776 139.955 131.292C141.165 130.808 142.507 130.566 143.981 130.566C146.027 130.566 147.49 130.995 148.37 131.853C149.25 132.711 149.69 133.998 149.69 135.714V145.416ZM153.749 131.82V130.962C154.431 130.962 154.937 130.907 155.267 130.797C155.597 130.687 155.927 130.489 156.257 130.203L162.131 124.923H162.428V130.962H166.685V131.82H162.428V142.908C162.428 143.964 162.549 144.712 162.791 145.152C163.055 145.57 163.495 145.779 164.111 145.779C164.595 145.779 165.024 145.68 165.398 145.482C165.772 145.284 166.179 144.943 166.619 144.459L167.147 145.086C165.761 146.626 163.715 147.396 161.009 147.396C159.183 147.396 157.874 147.011 157.082 146.241C156.29 145.471 155.894 144.272 155.894 142.644V131.82H153.749ZM190.653 138.981C190.653 141.819 189.762 143.931 187.98 145.317C186.22 146.703 183.679 147.396 180.357 147.396C177.035 147.396 174.483 146.703 172.701 145.317C170.941 143.931 170.061 141.819 170.061 138.981C170.061 136.143 170.941 134.031 172.701 132.645C174.483 131.259 177.035 130.566 180.357 130.566C183.679 130.566 186.22 131.259 187.98 132.645C189.762 134.031 190.653 136.143 190.653 138.981ZM176.925 138.981C176.925 140.939 177.013 142.446 177.189 143.502C177.387 144.558 177.728 145.328 178.212 145.812C178.696 146.296 179.411 146.538 180.357 146.538C181.303 146.538 182.018 146.296 182.502 145.812C182.986 145.328 183.316 144.558 183.492 143.502C183.69 142.446 183.789 140.939 183.789 138.981C183.789 137.023 183.69 135.516 183.492 134.46C183.316 133.404 182.986 132.634 182.502 132.15C182.018 131.666 181.303 131.424 180.357 131.424C179.411 131.424 178.696 131.666 178.212 132.15C177.728 132.634 177.387 133.404 177.189 134.46C177.013 135.516 176.925 137.023 176.925 138.981ZM201.795 146.604C202.829 146.604 203.588 146.45 204.072 146.142C204.578 145.834 204.831 145.295 204.831 144.525C204.831 143.997 204.699 143.568 204.435 143.238C204.171 142.908 203.753 142.611 203.181 142.347C202.609 142.083 201.696 141.72 200.442 141.258C198.308 140.488 196.79 139.696 195.888 138.882C194.986 138.046 194.535 136.902 194.535 135.45C194.535 133.8 195.151 132.579 196.383 131.787C197.615 130.973 199.485 130.566 201.993 130.566C203.269 130.566 204.523 130.698 205.755 130.962C206.987 131.204 207.944 131.49 208.626 131.82L208.23 135.78H207.669C207.075 134.306 206.36 133.195 205.524 132.447C204.688 131.677 203.478 131.292 201.894 131.292C200.882 131.292 200.101 131.435 199.551 131.721C199.001 131.985 198.726 132.48 198.726 133.206C198.726 133.712 198.847 134.119 199.089 134.427C199.353 134.735 199.749 135.021 200.277 135.285C200.827 135.549 201.729 135.934 202.983 136.44C204.787 137.166 206.151 137.793 207.075 138.321C207.999 138.849 208.681 139.454 209.121 140.136C209.561 140.818 209.781 141.676 209.781 142.71C209.781 144.36 209.143 145.559 207.867 146.307C206.613 147.033 204.721 147.396 202.191 147.396C200.849 147.396 199.441 147.264 197.967 147C196.515 146.758 195.426 146.472 194.7 146.142L195.162 141.654H195.723C196.119 143.392 196.823 144.657 197.835 145.449C198.847 146.219 200.167 146.604 201.795 146.604ZM218.053 128.454C217.019 128.454 216.194 128.223 215.578 127.761C214.962 127.277 214.654 126.584 214.654 125.682C214.654 124.78 214.962 124.098 215.578 123.636C216.194 123.152 217.019 122.91 218.053 122.91C219.087 122.91 219.912 123.152 220.528 123.636C221.144 124.098 221.452 124.78 221.452 125.682C221.452 126.584 221.144 127.277 220.528 127.761C219.912 128.223 219.087 128.454 218.053 128.454ZM212.806 146.406L213.961 146.142C214.291 146.076 214.5 145.999 214.588 145.911C214.698 145.823 214.753 145.658 214.753 145.416V132.942C214.753 132.7 214.698 132.535 214.588 132.447C214.5 132.359 214.291 132.282 213.961 132.216L212.806 131.952V131.358L220.726 130.368H221.353V145.416C221.353 145.658 221.397 145.823 221.485 145.911C221.595 145.999 221.815 146.076 222.145 146.142L223.3 146.406V147H212.806V146.406ZM229.244 147.264C228.474 147.264 227.814 147 227.264 146.472C226.736 145.944 226.472 145.306 226.472 144.558C226.472 143.81 226.736 143.172 227.264 142.644C227.814 142.116 228.474 141.852 229.244 141.852C230.014 141.852 230.663 142.116 231.191 142.644C231.741 143.172 232.016 143.81 232.016 144.558C232.016 145.306 231.741 145.944 231.191 146.472C230.663 147 230.014 147.264 229.244 147.264Z" fill="white"/>
</svg>
