<svg width="17" height="16" viewBox="0 0 17 16" fill="none" xmlns="http://www.w3.org/2000/svg">
<path d="M6.50307 0.283691C2.92326 0.283691 0 3.11592 0 6.58426C0 10.0526 2.92326 12.8848 6.50307 12.8848C7.93343 12.8848 9.25828 12.4305 10.333 11.6656L14.2802 15.4899C15.2377 16.3986 16.6446 15.0052 15.6871 14.0965L11.7556 10.2874C12.5411 9.2461 13.0061 7.9663 13.0061 6.58426C13.0061 3.11592 10.0829 0.283691 6.50307 0.283691ZM6.50307 2.22233C9.00034 2.22233 11.0052 4.16475 11.0052 6.58426C11.0052 9.00377 9.00034 10.9462 6.50307 10.9462C4.0058 10.9462 2.00094 9.00377 2.00094 6.58426C2.00094 4.16475 4.0058 2.22233 6.50307 2.22233Z" fill="white" fill-opacity="0.66"/>
</svg>
