<svg width="17" height="16" viewBox="0 0 17 16" fill="none" xmlns="http://www.w3.org/2000/svg">
<path d="M6.50307 0C2.92326 0 0 2.92325 0 6.50307C0 10.0829 2.92326 13.0061 6.50307 13.0061C7.93343 13.0061 9.25828 12.5372 10.333 11.7477L14.2802 15.6949C15.2377 16.6329 16.6446 15.1947 15.6871 14.2567L11.7556 10.3252C12.5411 9.25046 13.0061 7.92952 13.0061 6.50307C13.0061 2.92325 10.0829 0 6.50307 0ZM6.50307 2.00094C9.00034 2.00094 11.0052 4.0058 11.0052 6.50307C11.0052 9.00034 9.00034 11.0052 6.50307 11.0052C4.0058 11.0052 2.00094 9.00034 2.00094 6.50307C2.00094 4.0058 4.0058 2.00094 6.50307 2.00094Z" fill="#2E3436"/>
</svg>
