<svg width="162" height="18" viewBox="0 0 162 18" fill="none" xmlns="http://www.w3.org/2000/svg">
<path d="M30.3025 13.445H32.4475V3.05H31.3525L28.6225 4.25V5.495L30.3025 5.18V13.445Z" fill="white"/>
<path d="M50.901 13.37H57.216V12.26H52.716L54.216 10.745C55.866 9.08 57.021 7.79 57.021 6.02C57.021 4.22 55.911 3.095 53.841 3.095C52.701 3.095 51.666 3.575 51.036 3.995L51.351 5.015C51.936 4.625 52.746 4.22 53.586 4.22C54.996 4.22 55.626 4.85 55.626 6.155C55.626 7.565 54.636 8.705 53.211 10.19L50.901 12.59V13.37Z" fill="#808080"/>
<path d="M78.989 13.52C81.239 13.52 82.664 12.305 82.664 10.52C82.664 8.96 81.704 8.225 80.399 7.985C81.539 7.595 82.304 6.845 82.304 5.63C82.304 4.025 81.074 3.11 79.244 3.11C78.344 3.11 77.174 3.47 76.559 3.86L76.754 4.91C77.369 4.565 78.149 4.22 78.959 4.22C80.159 4.22 80.939 4.64 80.939 5.84C80.939 6.92 80.069 7.55 78.794 7.565H77.909V8.66H78.884C80.369 8.66 81.314 9.245 81.314 10.49C81.314 11.735 80.414 12.44 78.809 12.44C78.059 12.44 77.039 12.155 76.484 11.78L76.214 12.8C76.784 13.19 77.804 13.52 78.989 13.52Z" fill="#808080"/>
<path d="M105.471 13.595H106.716V11.42H108.396V10.37H106.716V3.125H105.711L100.641 10.505V11.42H105.471V13.595ZM102.021 10.37L105.486 5.33V10.37H102.021Z" fill="#808080"/>
<path d="M128.535 13.55C130.755 13.55 132.105 12.035 132.105 10.22C132.105 8.09 130.86 7.1 128.835 7.1C128.4 7.1 127.815 7.205 127.425 7.31L127.62 4.37H131.715V3.275H126.57L126.21 8.615C126.675 8.405 127.62 8.12 128.31 8.12C129.84 8.12 130.74 8.705 130.74 10.19C130.74 11.585 129.81 12.455 128.25 12.455C127.44 12.455 126.495 12.11 125.94 11.75L125.685 12.8C126.3 13.22 127.365 13.55 128.535 13.55Z" fill="#808080"/>
<rect width="10.023" height="1.18552" rx="0.592758" transform="matrix(0.707107 0.707107 0.707107 -0.707107 154 2.83813)" fill="white"/>
<rect width="10.023" height="1.18552" rx="0.592758" transform="matrix(0.707107 -0.707107 -0.707107 -0.707107 154.838 16.1746)" fill="white"/>
<rect x="7.92578" y="2.83813" width="10.023" height="1.18552" rx="0.592758" transform="rotate(135 7.92578 2.83813)" fill="#808080"/>
<rect x="7.0874" y="16.1746" width="10.023" height="1.18552" rx="0.592758" transform="rotate(-135 7.0874 16.1746)" fill="#808080"/>
</svg>
