<svg width="18" height="18" viewBox="0 0 18 18" fill="none" xmlns="http://www.w3.org/2000/svg">
<path d="M16.6561 8.2613C16.4087 8.2613 16.1715 8.35958 15.9965 8.53452C15.8216 8.70947 15.7233 8.94674 15.7233 9.19414V14.7912C15.7233 15.0386 15.625 15.2759 15.4501 15.4508C15.2751 15.6257 15.0379 15.724 14.7904 15.724H3.59637C3.34897 15.724 3.1117 15.6257 2.93675 15.4508C2.76181 15.2759 2.66353 15.0386 2.66353 14.7912V3.5971C2.66353 3.3497 2.76181 3.11243 2.93675 2.93749C3.1117 2.76254 3.34897 2.66426 3.59637 2.66426H9.19341C9.44081 2.66426 9.67809 2.56598 9.85303 2.39104C10.028 2.2161 10.1262 1.97883 10.1262 1.73142C10.1262 1.48402 10.028 1.24675 9.85303 1.07181C9.67809 0.896865 9.44081 0.798584 9.19341 0.798584H3.59637C2.85416 0.798584 2.14234 1.09343 1.61752 1.61825C1.09269 2.14308 0.797852 2.85489 0.797852 3.5971V14.7912C0.797852 15.5334 1.09269 16.2452 1.61752 16.77C2.14234 17.2949 2.85416 17.5897 3.59637 17.5897H14.7904C15.5327 17.5897 16.2445 17.2949 16.7693 16.77C17.2941 16.2452 17.589 15.5334 17.589 14.7912V9.19414C17.589 8.94674 17.4907 8.70947 17.3157 8.53452C17.1408 8.35958 16.9035 8.2613 16.6561 8.2613Z" fill="white"/>
<path d="M12.9245 2.66426H14.3984L8.53082 8.5225C8.44338 8.60922 8.37398 8.71239 8.32662 8.82607C8.27927 8.93974 8.25488 9.06167 8.25488 9.18481C8.25488 9.30796 8.27927 9.42989 8.32662 9.54356C8.37398 9.65724 8.44338 9.76041 8.53082 9.84713C8.61753 9.93456 8.72071 10.004 8.83438 10.0513C8.94806 10.0987 9.06999 10.1231 9.19313 10.1231C9.31628 10.1231 9.4382 10.0987 9.55188 10.0513C9.66556 10.004 9.76873 9.93456 9.85545 9.84713L15.723 3.9889V5.46278C15.723 5.71019 15.8213 5.94746 15.9962 6.1224C16.1712 6.29734 16.4084 6.39562 16.6559 6.39562C16.9033 6.39562 17.1405 6.29734 17.3155 6.1224C17.4904 5.94746 17.5887 5.71019 17.5887 5.46278V1.73142C17.5887 1.48402 17.4904 1.24675 17.3155 1.07181C17.1405 0.896865 16.9033 0.798584 16.6559 0.798584H12.9245C12.6771 0.798584 12.4398 0.896865 12.2649 1.07181C12.0899 1.24675 11.9917 1.48402 11.9917 1.73142C11.9917 1.97883 12.0899 2.2161 12.2649 2.39104C12.4398 2.56598 12.6771 2.66426 12.9245 2.66426Z" fill="white"/>
</svg>
